<svg width="23" height="46" viewBox="0 0 23 46" fill="none" xmlns="http://www.w3.org/2000/svg">
<g clip-path="url(#clip0_6784_5245)">
<path style="mix-blend-mode:multiply" d="M19.303 3.95603L16.6975 3.72189C15.2507 3.59187 14.0062 4.26455 13.8764 5.70885L10.5612 42.6014C10.4989 43.2945 10.7153 43.9841 11.1627 44.5187C11.6102 45.0532 12.2521 45.3889 12.9475 45.4519L13.6506 45.427C15.0974 45.557 18.1744 45.9217 18.4094 43.3067L21.7246 6.41411C21.8544 4.96981 21.9243 4.19159 19.303 3.95603Z" fill="url(#paint0_linear_6784_5245)"/>
<mask id="mask0_6784_5245" style="mask-type:luminance" maskUnits="userSpaceOnUse" x="17" y="2" width="3" height="8">
<path d="M17.5293 2.99023C17.5293 2.99023 19.5701 3.17363 19.6969 4.28604C19.8045 5.33568 19.7812 9.35559 19.7812 9.35559L18.4433 9.09971L17.5293 2.99023Z" fill="white"/>
</mask>
<g mask="url(#mask0_6784_5245)">
<path d="M20.3306 3.24197L17.5293 2.99023L16.9799 9.10385L19.7812 9.35559L20.3306 3.24197Z" fill="white"/>
<path d="M19.7915 5.9521C19.9505 7.56807 19.9357 9.19626 19.7474 10.8089L19.8575 9.58439L17.3352 9.35772L17.2765 10.0104C17.1883 9.65426 17.1162 9.27022 17.0353 8.85826C16.8812 8.04861 16.7663 7.15657 16.6853 6.21557L17.0093 6.24469L17.3239 2.74382L19.1397 2.90699L19.2062 2.1669C19.2919 2.52578 19.3723 2.90981 19.4474 3.31898C19.5915 4.11417 19.7125 5.01355 19.7915 5.9521Z" fill="white"/>
<path d="M19.773 5.95508C19.9297 7.55155 19.916 9.16 19.7319 10.7534L19.8371 9.58268L17.6996 9.39059L17.5603 10.9403C17.1073 9.4014 16.8199 7.8189 16.703 6.21954L17.009 6.24704L17.3238 2.74393L19.1238 2.90569L19.1861 2.21269C19.2722 2.56709 19.3517 2.94425 19.4247 3.34419C19.575 4.14447 19.693 5.02774 19.773 5.95508Z" fill="white"/>
<path d="M19.7553 5.95886C19.9093 7.53733 19.8957 9.12751 19.7146 10.7029L19.8153 9.58157L17.7025 9.39171L17.5687 10.8809C17.1221 9.359 16.8384 7.79435 16.7225 6.2131L17.0105 6.23898L17.3245 2.74484L19.1246 2.9066L19.1818 2.26967C19.2669 2.61795 19.3454 2.9905 19.4171 3.38731C19.56 4.16883 19.677 5.03845 19.7553 5.95886Z" fill="white"/>
<path d="M19.7381 5.95847C19.8907 7.51736 19.8765 9.0879 19.6959 10.6436L19.7916 9.57832L17.7058 9.39089L17.5772 10.8217C17.1358 9.31869 16.8558 7.77326 16.7417 6.21145L17.0117 6.23572L17.3255 2.74382L18.7655 2.87323L18.9034 1.33922C19.3462 2.84495 19.626 4.39353 19.7381 5.95847Z" fill="white"/>
<path d="M19.7196 5.96051C19.8715 7.4998 19.8576 9.05078 19.6782 10.5869L19.7689 9.57772L17.7101 9.39271L17.5867 10.7652C17.1504 9.28013 16.8732 7.75318 16.7599 6.21L17.0119 6.23265L17.3253 2.74524L18.7631 2.87444L18.8949 1.40771C19.3315 2.89183 19.608 4.41808 19.7196 5.96051Z" fill="white"/>
<path d="M19.701 5.96123C19.851 7.48249 19.8372 9.01529 19.6598 10.5334L19.7459 9.57579L17.7208 9.39382L17.6017 10.7193C17.1713 9.25281 16.8977 7.74516 16.7856 6.2215L17.0106 6.24172L17.3248 2.74534L18.7603 2.87434L18.8871 1.46367C19.3161 2.9303 19.5889 4.43781 19.701 5.96123Z" fill="white"/>
<path d="M19.6824 5.96405C19.8297 7.46731 19.816 8.98183 19.6416 10.482L19.7222 9.58494L17.7129 9.40438L17.6001 10.6603C17.1763 9.20905 16.9089 7.71699 16.8024 6.20941L17.0274 6.22963L17.3404 2.7467L18.7714 2.8753L18.8924 1.52968C19.3128 2.97577 19.5776 4.46227 19.6824 5.96405Z" fill="white"/>
<path d="M19.6633 5.96706C19.8094 7.44926 19.7968 8.94266 19.6258 10.422L19.7022 9.57204L17.7154 9.39351L17.6078 10.5911C17.1878 9.16156 16.9214 7.69161 16.8133 6.20608L17.0113 6.22387L17.3239 2.74543L18.7527 2.87382L18.869 1.57978C19.2889 3.01011 19.5552 4.4808 19.6633 5.96706Z" fill="white"/>
<path d="M19.6463 5.96655C19.7891 7.42999 19.7752 8.90432 19.6049 10.3646L19.6764 9.56849L17.7189 9.39258L17.6165 10.5319C17.2012 9.12108 16.9377 7.67033 16.8305 6.20412L17.0105 6.22029L17.3229 2.7441L18.7494 2.87229L18.8604 1.63656C19.2753 3.0482 19.5387 4.49966 19.6463 5.96655Z" fill="white"/>
<path d="M19.629 5.9678C19.7689 7.41248 19.7552 8.86778 19.5881 10.3094L19.6548 9.56708L17.7221 9.3934L17.6249 10.4744C17.2152 9.08157 16.9554 7.64933 16.8498 6.20187L17.0118 6.21643L17.3238 2.74471L18.7481 2.8727L18.8539 1.69528C19.2612 3.08866 19.5209 4.52064 19.629 5.9678Z" fill="white"/>
<path d="M19.6098 5.97056C19.7513 7.39859 19.7383 8.83756 19.5711 10.2626L19.6338 9.56516L17.7258 9.3937L17.6337 10.4186C17.2347 9.04325 16.9815 7.63002 16.8785 6.20215L17.0225 6.21509L17.3343 2.74562L18.754 2.87321L18.8548 1.75185C19.2566 3.12732 19.5097 4.5416 19.6098 5.97056Z" fill="white"/>
<path d="M19.5906 5.97078C19.7288 7.37782 19.7162 8.79545 19.5531 10.1997L19.6103 9.56273L17.7293 9.39369L17.6424 10.3603C17.2413 9.00431 16.9864 7.60962 16.8822 6.1999L17.0082 6.21122L17.3197 2.744L18.7373 2.87138L18.8326 1.81058C19.2332 3.16654 19.4873 4.56118 19.5906 5.97078Z" fill="white"/>
<path d="M19.5725 5.97386C19.7089 7.36136 19.6966 8.75931 19.5357 10.144L19.5881 9.56092L17.7318 9.39411L17.6512 10.2912C17.257 8.95321 17.0073 7.57714 16.9064 6.18644L17.0144 6.19614L17.3246 2.74462L18.7398 2.8718L18.8299 1.86931C19.2222 3.20759 19.4711 4.58345 19.5725 5.97386Z" fill="white"/>
<path d="M19.546 5.97458C19.6818 7.34324 19.6696 8.72238 19.5098 10.0883L19.5573 9.559L17.7348 9.39522L17.6584 10.2452C17.2703 8.92583 17.0242 7.56909 16.9243 6.19794L17.0143 6.20602L17.3253 2.74553L18.736 2.8723L18.8211 1.92588C19.2057 3.24618 19.4487 4.60335 19.546 5.97458Z" fill="white"/>
<path d="M19.5458 5.97524C19.6789 7.32815 19.6666 8.69128 19.5093 10.0414L19.5528 9.557L17.7528 9.39525L17.6816 10.1869C17.3003 8.88525 17.0579 7.54715 16.9584 6.19489L17.0304 6.20136L17.341 2.74535L18.7495 2.87192L18.8301 1.97484C19.2103 3.27933 19.4502 4.62033 19.5458 5.97524Z" fill="white"/>
<path d="M19.5183 5.97817C19.6495 7.31079 19.6376 8.65348 19.4827 9.98341L19.5212 9.55505L17.7414 9.39511L17.6755 10.1285C17.2978 8.84584 17.0582 7.52681 16.9608 6.19373L17.0148 6.19858L17.3251 2.74481L18.7314 2.87118L18.806 2.04138C19.1825 3.32491 19.4212 4.64456 19.5183 5.97817Z" fill="white"/>
<path d="M19.499 5.97942C19.6283 7.29099 19.6167 8.61248 19.4646 9.92145L19.4977 9.55365L17.7426 9.39593L17.6822 10.0687C17.3107 8.80393 17.0747 7.50349 16.9783 6.18924L17.0143 6.19247L17.3241 2.74543L18.7281 2.8716L18.7975 2.10011C19.1681 3.36497 19.4033 4.66533 19.499 5.97942Z" fill="white"/>
<path d="M19.4815 5.98095C19.609 7.27298 19.5977 8.57479 19.4479 9.86427L19.4761 9.55029L17.7458 9.3948L17.6904 10.0115C17.323 8.76579 17.0907 7.48447 16.9972 6.18952L17.0152 6.19114L17.325 2.7441L18.7245 2.86986L18.7886 2.15668C19.1555 3.40329 19.3878 4.68531 19.4815 5.98095Z" fill="white"/>
<path d="M19.4638 5.98306C19.5885 7.25631 19.5767 8.53912 19.4284 9.80971L19.4517 9.54955L17.7507 9.39669L17.7003 9.95737C17.3386 8.72942 17.1092 7.46663 17.0159 6.19038C16.8914 4.91634 16.9026 3.63283 17.0492 2.36129L17.3254 2.74558L18.7227 2.87115L18.7815 2.21628C19.1426 3.4442 19.3713 4.70694 19.4638 5.98306Z" fill="white"/>
<path d="M19.4445 5.98378C19.567 7.23753 19.5561 8.5006 19.4121 9.75191L19.4308 9.54334L17.7523 9.3925L17.7072 9.89487C17.3506 8.68636 17.1239 7.44355 17.031 6.1874C16.9085 4.93294 16.921 3.6691 17.0681 2.41743L17.3244 2.74567L18.7194 2.87104L18.773 2.27448C19.1285 3.48366 19.3536 4.72713 19.4445 5.98378Z" fill="white"/>
<path d="M19.4258 5.98503C19.5478 7.21992 19.5371 8.46421 19.3939 9.69669L19.4076 9.54418L17.7538 9.39557L17.7135 9.84411C17.3631 8.65286 17.1409 7.42786 17.0507 6.18985C16.9296 4.95265 16.9405 3.70621 17.0832 2.47146L17.3241 2.74405L18.7168 2.86921L18.7652 2.33096C19.114 3.52244 19.3354 4.74727 19.4258 5.98503Z" fill="white"/>
<path d="M19.4075 5.98566C19.5277 7.20252 19.5171 8.42862 19.376 9.64309L19.3851 9.54217L17.756 9.39578L17.7214 9.78153C17.3768 8.60895 17.1582 7.40324 17.0693 6.18474C16.9511 4.97007 16.9622 3.74643 17.1024 2.53424L17.3234 2.75079L18.7117 2.87555L18.7554 2.38888C19.1 3.56146 19.3186 4.76716 19.4075 5.98566Z" fill="white"/>
<path d="M19.3907 5.98905C19.5081 7.1864 19.4978 8.39273 19.3599 9.58776L19.3641 9.54067L17.7621 9.3967L17.7326 9.72414C17.3928 8.56956 17.1771 7.3823 17.0892 6.18239C16.9737 4.98504 16.987 3.77887 17.129 2.58449L17.3413 2.746L18.7273 2.87055L18.7644 2.45789C19.0974 3.60973 19.3073 4.79336 19.3907 5.98905Z" fill="white"/>
<path d="M19.3712 5.98985C19.6076 8.73538 19.2905 11.0016 18.6643 11.0539L18.8054 9.48398L17.7636 9.39036L17.7395 9.65948C17.4042 8.52312 17.1921 7.35427 17.1069 6.17298C16.9923 4.99741 17.0029 3.81311 17.1386 2.63991L17.3243 2.74476L18.708 2.86911L18.7409 2.50355C19.075 3.64002 19.2863 4.80876 19.3712 5.98985Z" fill="white"/>
<path d="M19.3532 5.99069C19.5844 8.6928 19.2729 10.9234 18.6559 10.9742L18.7893 9.48949L17.7655 9.3975L17.7472 9.60158C17.4182 8.48304 17.2098 7.33278 17.1255 6.17032C17.0127 5.01429 17.0231 3.84967 17.1565 2.69596L17.3245 2.74497L18.7038 2.86892L18.7314 2.56167C19.0605 3.67943 19.2689 4.82895 19.3532 5.99069Z" fill="white"/>
<path d="M19.3341 5.99409C19.5626 8.65073 19.2544 10.8432 18.6499 10.9064C18.0454 10.9696 17.3677 8.84462 17.1412 6.19041C16.9147 3.53621 17.222 1.32787 17.8278 1.27605L17.6927 2.77866L18.7008 2.86925L18.7231 2.62031C19.0466 3.7201 19.2514 4.8511 19.3341 5.99409Z" fill="white"/>
<path d="M19.3158 5.99471C19.5347 8.60753 19.2388 10.7649 18.6424 10.813C18.0461 10.8612 17.3841 8.78731 17.1606 6.17633C16.937 3.56534 17.2322 1.41695 17.834 1.358C18.4359 1.29904 19.096 3.3931 19.3158 5.99471Z" fill="white"/>
<path d="M19.2975 5.99763C19.5204 8.5656 19.2209 10.6865 18.6448 10.7364C18.0688 10.7864 17.4062 8.74413 17.1879 6.17657C16.9695 3.609 17.2554 1.48692 17.8405 1.43776C18.4256 1.3886 19.0791 3.43007 19.2975 5.99763Z" fill="white"/>
<path d="M19.2827 5.99784C19.4961 8.51974 19.2044 10.6051 18.6375 10.6537C18.0707 10.7022 17.4207 8.69722 17.2052 6.17287C16.9897 3.64852 17.2813 1.56538 17.8504 1.51705C18.4195 1.46871 19.0648 3.47553 19.2827 5.99784Z" fill="white"/>
<path d="M19.2622 5.99903C19.475 8.47791 19.1887 10.5276 18.6243 10.5741C18.0599 10.6206 17.4355 8.65863 17.2053 6.1714C16.9752 3.68417 17.2799 1.65646 17.8433 1.59631C18.4067 1.53616 19.0515 3.52258 19.2622 5.99903Z" fill="white"/>
<path d="M19.2459 6.00133C19.4514 8.43435 19.1706 10.4484 18.6154 10.4934C18.0602 10.5385 17.4424 8.60424 17.2352 6.16429C17.028 3.72434 17.3082 1.71704 17.8657 1.67218C18.4232 1.62732 19.0361 3.56566 19.2459 6.00133Z" fill="white"/>
<path d="M19.2255 6.00214C19.43 8.39663 19.1508 10.3678 18.609 10.4141C18.0673 10.4604 17.4579 8.55854 17.26 6.1669C17.0621 3.77525 17.3326 1.80099 17.8833 1.75553C18.434 1.71006 19.0229 3.61233 19.2255 6.00214Z" fill="white"/>
<path d="M19.2087 6.00526C19.4086 8.3496 19.1363 10.2943 18.593 10.3336C18.0496 10.373 17.4636 8.51394 17.2617 6.16715C17.0597 3.82036 17.3408 1.87871 17.8752 1.83856C18.4096 1.7984 19.0068 3.65847 19.2087 6.00526Z" fill="white"/>
<path d="M19.1884 6.00535C19.3854 8.30648 19.1192 10.2088 18.5963 10.2477C18.0734 10.2866 17.486 8.46813 17.2888 6.16925C17.0917 3.87036 17.3581 1.96583 17.881 1.92691C18.4039 1.88799 18.9937 3.70443 19.1884 6.00535Z" fill="white"/>
<path d="M19.1719 6.00896C19.3637 8.26666 19.1032 10.131 18.5888 10.1752C18.0745 10.2195 17.5101 8.42339 17.3064 6.1714C17.1028 3.91941 17.3752 2.04932 17.8895 2.00511C18.4038 1.9609 18.9781 3.74881 19.1719 6.00896Z" fill="white"/>
<path d="M19.1513 6.00919C19.3402 8.22368 19.0853 10.0501 18.5802 10.0929C18.0751 10.1357 17.5142 8.3761 17.3243 6.17283C17.1344 3.96956 17.3958 2.12109 17.8964 2.0779C18.3971 2.03472 18.9623 3.79695 19.1513 6.00919Z" fill="white"/>
<path d="M19.1335 6.00959C19.3196 8.17862 19.07 9.97163 18.5741 10.013C18.0782 10.0543 17.5188 8.32878 17.3427 6.17422C17.1666 4.01966 17.4094 2.20118 17.9034 2.15514C18.3975 2.10911 18.9504 3.8318 19.1335 6.00959Z" fill="white"/>
<path d="M19.1162 6.01141C19.2996 8.13497 19.0533 9.8921 18.5688 9.93221C18.0843 9.97233 17.5444 8.28245 17.3632 6.15909C17.182 4.03572 17.4261 2.2784 17.9106 2.23828C18.3951 2.19817 18.9352 3.8858 19.1162 6.01141Z" fill="white"/>
<path d="M19.0887 6.01132C19.2669 8.09147 19.0285 9.81087 18.553 9.8518C18.0776 9.89272 17.5504 8.2379 17.3723 6.15551C17.1943 4.07312 17.4435 2.35922 17.919 2.31829C18.3945 2.27737 18.9217 3.93219 19.0887 6.01132Z" fill="white"/>
<path d="M19.0882 6.01597C19.2614 8.05045 19.0262 9.73397 18.5622 9.77366C18.0982 9.81335 17.5702 8.19238 17.4061 6.15646C17.242 4.12054 17.459 2.43765 17.9253 2.39816C18.3916 2.35867 18.9061 3.97843 19.0882 6.01597Z" fill="white"/>
<path d="M19.0612 6.01595C19.2316 8.00722 19.002 9.65281 18.5493 9.69352C18.0965 9.73422 17.5882 8.14666 17.4178 6.1554C17.2475 4.16413 17.4772 2.51629 17.932 2.47803C18.3868 2.43978 18.8931 4.02489 19.0612 6.01595Z" fill="white"/>
<path d="M19.0434 6.01639C19.2108 7.96444 18.9958 9.57516 18.5389 9.61097C18.082 9.64679 17.6018 8.10019 17.4342 6.15438C17.2665 4.20858 17.493 2.59662 17.9366 2.55735C18.3802 2.51808 18.878 4.07079 19.0434 6.01639Z" fill="white"/>
<path d="M19.025 6.01943C19.1897 7.92201 18.9689 9.49605 18.546 9.53265C18.123 9.56925 17.6285 8.05528 17.4661 6.1529C17.3036 4.25051 17.5222 2.67628 17.9565 2.63845C18.3909 2.60061 18.865 4.115 19.025 6.01943Z" fill="white"/>
<path d="M19.0078 6.02011C19.1651 7.87908 18.9507 9.40622 18.527 9.45179C18.1033 9.49736 17.6309 8.01477 17.463 6.14807C17.295 4.28137 17.5178 2.76177 17.9435 2.71864C18.3693 2.67551 18.8482 4.16095 19.0078 6.02011Z" fill="white"/>
<path d="M18.9884 6.02274C19.1444 7.84541 18.9356 9.33687 18.5219 9.37204C18.1081 9.40721 17.6458 7.96396 17.4892 6.14801C17.3326 4.33206 17.5443 2.83408 17.958 2.79891C18.3717 2.76374 18.834 4.20699 18.9884 6.02274Z" fill="white"/>
<path d="M18.9708 6.02304C19.1203 7.79312 18.907 9.25706 18.5117 9.28936C18.1164 9.32166 17.6597 7.91734 17.508 6.14706C17.3564 4.37677 17.5516 2.91122 17.9651 2.87829C18.3786 2.84537 18.8192 4.25275 18.9708 6.02304Z" fill="white"/>
<path d="M18.9515 6.02354C19.1002 7.7506 18.8944 9.18355 18.5064 9.20973C18.1185 9.23591 17.674 7.87113 17.5276 6.14427C17.3811 4.4174 17.5847 2.98426 17.9725 2.96032C18.3602 2.93638 18.805 4.29667 18.9515 6.02354Z" fill="white"/>
<path d="M18.9355 6.02683C19.0793 7.70823 18.8864 9.09713 18.5001 9.13024C18.1138 9.16335 17.6897 7.82527 17.5459 6.14387C17.4021 4.46246 17.5952 3.07132 17.979 3.04025C18.3629 3.00918 18.785 4.34482 18.9355 6.02683Z" fill="white"/>
<path d="M18.9153 6.02868C19.0561 7.66686 18.8733 9.02048 18.4939 9.05196C18.1146 9.08343 17.7009 7.7802 17.5646 6.14242C17.4282 4.50464 17.6066 3.15061 17.9857 3.12138C18.3649 3.09215 18.7812 4.3911 18.9153 6.02868Z" fill="white"/>
<path d="M18.8979 6.03124C19.0336 7.62601 18.8497 8.9411 18.4863 8.97174C18.1229 9.00239 17.7174 7.73381 17.5815 6.14129C17.4457 4.54877 17.6298 3.23143 17.9932 3.20079C18.3566 3.17014 18.7622 4.43648 18.8979 6.03124Z" fill="white"/>
<path d="M18.8774 6.03231C19.0104 7.58162 18.8319 8.86103 18.4775 8.89248C18.1231 8.92394 17.7322 7.6951 17.5907 6.14051C17.4491 4.58591 17.6364 3.30955 17.9906 3.28034C18.3448 3.25112 18.7459 4.49218 18.8774 6.03231Z" fill="white"/>
<path d="M18.8595 6.03153C18.9873 7.53741 18.8143 8.78114 18.4693 8.80892C18.1243 8.8367 17.7439 7.64272 17.6161 6.13683C17.4883 4.63095 17.6611 3.38946 18.0041 3.35924C18.347 3.32902 18.7315 4.52789 18.8595 6.03153Z" fill="white"/>
<path d="M18.8409 6.0356C18.9659 7.49602 18.7984 8.70407 18.4649 8.73062C18.1313 8.75716 17.7614 7.59804 17.6363 6.13761C17.5113 4.67719 17.6811 3.46934 18.0125 3.44035C18.344 3.41136 18.7158 4.57518 18.8409 6.0356Z" fill="white"/>
<path d="M18.8249 6.03557C18.9448 7.45257 18.7807 8.62249 18.4584 8.65005C18.1361 8.67761 17.7747 7.55089 17.6548 6.13389C17.5349 4.71688 17.6965 3.549 18.0188 3.52144C18.3411 3.49389 18.7026 4.6206 18.8249 6.03557Z" fill="white"/>
<path d="M18.8042 6.03767C18.924 7.40493 18.765 8.54366 18.4519 8.56978C18.1388 8.59591 17.7901 7.50425 17.6729 6.1327C17.5557 4.76116 17.7143 3.62692 18.0274 3.6008C18.3405 3.57467 18.6872 4.66389 18.8042 6.03767Z" fill="white"/>
<path d="M18.789 6.03834C18.8965 7.36606 18.748 8.46278 18.4458 8.4944C18.1436 8.52602 17.8059 7.46248 17.6914 6.1364C17.577 4.81032 17.7303 3.70952 18.0346 3.68034C18.3389 3.65117 18.6747 4.71001 18.789 6.03834Z" fill="white"/>
<path d="M18.77 6.0396C18.8813 7.3247 18.7316 8.38514 18.4369 8.40839C18.1422 8.43165 17.8275 7.41539 17.7162 6.13029C17.6049 4.84518 17.7544 3.78699 18.047 3.76129C18.3397 3.73559 18.6607 4.75694 18.77 6.0396Z" fill="white"/>
<path d="M18.7524 6.04194C18.8678 7.28219 18.7151 8.29941 18.4313 8.32816C18.1474 8.35691 17.8369 7.37042 17.7217 6.12792C17.6065 4.88543 17.759 3.87046 18.0408 3.83926C18.3226 3.80806 18.646 4.8025 18.7524 6.04194Z" fill="white"/>
<path d="M18.7329 6.04472C18.8343 7.2385 18.6957 8.22533 18.4237 8.24836C18.1517 8.2714 17.8469 7.3216 17.7457 6.12557C17.6445 4.92955 17.7809 3.94252 18.0551 3.91968C18.3294 3.89685 18.6294 4.84849 18.7329 6.04472Z" fill="white"/>
<path d="M18.715 6.04646C18.8134 7.19702 18.6781 8.14797 18.4176 8.16977C18.157 8.19158 17.8627 7.27663 17.7642 6.12607C17.6658 4.9755 17.7989 4.02436 18.0616 4.00275C18.3244 3.98115 18.6142 4.8957 18.715 6.04646Z" fill="white"/>
<path d="M18.6966 6.04597C18.7899 7.15311 18.6615 8.07755 18.4087 8.08874C18.156 8.09994 17.8758 7.22922 17.7823 6.12432C17.6888 5.01942 17.8152 4.09254 18.068 4.08134C18.3207 4.07015 18.6019 4.92965 18.6966 6.04597Z" fill="white"/>
<path d="M18.6762 6.04655C18.7688 7.11068 18.6446 7.98802 18.4046 8.0094C18.1645 8.03078 17.8913 7.1833 17.8007 6.12162C17.7101 5.05993 17.8321 4.18239 18.0744 4.16121C18.3168 4.14003 18.5856 4.98487 18.6762 6.04655Z" fill="white"/>
<path d="M18.6601 6.05103C18.7456 7.06929 18.6293 7.90891 18.3962 7.92865C18.163 7.9484 17.9067 7.14086 17.819 6.12239C17.7314 5.10393 17.8501 4.26227 18.081 4.24232C18.3119 4.22238 18.5725 5.03256 18.6601 6.05103Z" fill="white"/>
<path d="M18.6298 6.06388C18.7148 7.03688 18.6017 7.84062 18.3808 7.85016C18.16 7.8597 17.9111 7.09579 17.8286 6.12074C17.7461 5.1457 17.8569 4.34176 18.0775 4.33446C18.2982 4.32716 18.5573 5.07843 18.6298 6.06388Z" fill="white"/>
<path d="M18.6298 6.06423C18.7096 6.99382 18.5998 7.76167 18.3895 7.77895C18.1793 7.79623 17.9415 7.06044 17.8574 6.12821C17.7733 5.19598 17.8844 4.41467 18.0985 4.40452C18.3126 4.39438 18.5441 5.12507 18.6298 6.06423Z" fill="white"/>
<path d="M18.6022 6.06087C18.679 6.94724 18.5771 7.67737 18.3759 7.69546C18.1746 7.71355 17.9477 7.00813 17.8729 6.12421C17.7981 5.24029 17.9002 4.50791 18.1014 4.48982C18.3027 4.47173 18.528 5.17022 18.6022 6.06087Z" fill="white"/>
<path d="M18.5877 6.06041C18.6571 6.90316 18.5607 7.59761 18.3679 7.62323C18.175 7.64886 17.9729 6.97053 17.892 6.12902C17.8111 5.28751 17.9165 4.59387 18.1086 4.57722C18.3006 4.56056 18.514 5.21502 18.5877 6.06041Z" fill="white"/>
<path d="M18.5674 6.05737C18.6364 6.85486 18.5454 7.51363 18.3626 7.52885C18.1798 7.54407 17.9783 6.90876 17.9114 6.11372C17.8445 5.31868 17.9356 4.65767 18.1162 4.64225C18.2968 4.62682 18.5007 5.26009 18.5674 6.05737Z" fill="white"/>
<path d="M18.552 6.0562C18.616 6.80802 18.5285 7.42867 18.3571 7.44266C18.1857 7.45665 17.9943 6.86068 17.9305 6.10661C17.8667 5.35255 17.9518 4.73395 18.1234 4.71772C18.295 4.70148 18.4856 5.30642 18.552 6.0562Z" fill="white"/>
<path d="M18.5339 6.05432C18.595 6.76293 18.5129 7.34789 18.3508 7.36044C18.1886 7.373 18.0099 6.81209 17.9488 6.10348C17.8878 5.39488 17.9698 4.80992 18.1299 4.79492C18.2901 4.77992 18.4677 5.35204 18.5339 6.05432Z" fill="white"/>
<path d="M18.5156 6.05392C18.5715 6.7191 18.4951 7.26614 18.3442 7.2797C18.1933 7.29327 18.023 6.76477 17.9671 6.09958C17.9112 5.4344 17.9853 4.88716 18.1383 4.87604C18.2913 4.86492 18.4632 5.40035 18.5156 6.05392Z" fill="white"/>
<path d="M18.4938 6.06251C18.5468 6.68448 18.4763 7.19135 18.3341 7.20797C18.192 7.22459 18.0369 6.7291 17.9795 6.10673C17.922 5.48436 17.997 4.97789 18.1389 4.96352C18.2808 4.94914 18.4427 5.44524 18.4938 6.06251Z" fill="white"/>
<path d="M18.4782 6.06617C18.5262 6.64247 18.4608 7.11814 18.3282 7.12884C18.1957 7.13954 18.0509 6.68115 18.0027 6.10709C17.9545 5.53303 18.0201 5.05511 18.1504 5.04421C18.2807 5.03331 18.4279 5.48966 18.4782 6.06617Z" fill="white"/>
<path d="M18.4586 6.06855C18.5041 6.59715 18.4419 7.03694 18.3206 7.04865C18.1994 7.06036 18.0652 6.63458 18.0199 6.10374C17.9746 5.5729 18.0346 5.1329 18.1557 5.12343C18.2767 5.11397 18.4113 5.53526 18.4586 6.06855Z" fill="white"/>
<path d="M18.4415 6.06992C18.4819 6.5551 18.4251 6.95921 18.3159 6.96296C18.2067 6.96671 18.0798 6.58679 18.0397 6.09937C17.9996 5.61195 18.0538 5.20988 18.1653 5.20633C18.2768 5.20278 18.3984 5.59127 18.4415 6.06992Z" fill="white"/>
<path d="M18.4239 6.06882C18.4613 6.51078 18.41 6.87921 18.3096 6.88601C18.2092 6.89282 18.0954 6.54347 18.0582 6.09927C18.021 5.65506 18.0696 5.29092 18.1725 5.28207C18.2754 5.27323 18.3842 5.62666 18.4239 6.06882Z" fill="white"/>
<path d="M18.402 6.06917C18.434 6.46995 18.3886 6.79821 18.2995 6.80603C18.2103 6.81384 18.1005 6.4965 18.0719 6.10733C18.0434 5.71817 18.0828 5.38033 18.1742 5.37272C18.2656 5.36511 18.3695 5.67287 18.402 6.06917Z" fill="white"/>
<path d="M18.3867 6.0728C18.416 6.42812 18.3741 6.71826 18.2939 6.72688C18.2137 6.7355 18.1236 6.45158 18.0941 6.0985C18.0645 5.74542 18.1047 5.4506 18.1846 5.44422C18.2646 5.43784 18.3549 5.71952 18.3867 6.0728Z" fill="white"/>
<path d="M18.3684 6.07547C18.395 6.38533 18.3585 6.63979 18.2877 6.64473C18.217 6.64968 18.1391 6.4053 18.1103 6.09523C18.0814 5.78517 18.1181 5.52847 18.1889 5.52353C18.2596 5.51858 18.3418 5.76561 18.3684 6.07547Z" fill="white"/>
<path d="M18.3502 6.0767C18.3717 6.34314 18.3407 6.56192 18.2813 6.56563C18.222 6.56935 18.1524 6.35962 18.1304 6.0999C18.1084 5.84019 18.1377 5.61449 18.1995 5.60873C18.2612 5.60298 18.3266 5.81006 18.3502 6.0767Z" fill="white"/>
<path d="M18.3319 6.07692C18.35 6.30463 18.3251 6.48099 18.2748 6.48551C18.2245 6.49004 18.1676 6.31536 18.1491 6.09214C18.1306 5.86892 18.1559 5.68807 18.206 5.68579C18.2561 5.68351 18.311 5.85574 18.3319 6.07692Z" fill="white"/>
<path d="M18.3133 6.07936C18.3271 6.25468 18.307 6.40209 18.2659 6.40518C18.2248 6.40827 18.1807 6.26865 18.1671 6.09109C18.1536 5.91353 18.1712 5.76816 18.2123 5.76507C18.2534 5.76198 18.2976 5.9016 18.3133 6.07936Z" fill="white"/>
<path d="M18.2945 6.0812C18.3053 6.21329 18.2907 6.32503 18.2588 6.32668C18.2269 6.32833 18.1955 6.22377 18.1845 6.09392C18.1734 5.96406 18.1882 5.85009 18.2066 5.84722C18.225 5.84435 18.2814 5.94889 18.2945 6.0812Z" fill="white"/>
<path d="M18.277 6.08283C18.2828 6.16926 18.2627 6.24206 18.2623 6.24655C18.2619 6.25103 18.2209 6.17726 18.213 6.08838C18.2051 5.9995 18.2273 5.92915 18.2277 5.92466C18.2281 5.92018 18.2691 5.99395 18.277 6.08283Z" fill="white"/>
<path d="M18.258 6.08297C18.2542 6.12537 18.2508 6.16331 18.2506 6.16554C18.2504 6.16778 18.2289 6.12986 18.226 6.08685C18.2231 6.04384 18.2332 6.00651 18.2334 6.00427C18.2336 6.00204 18.2528 6.03976 18.258 6.08297Z" fill="white"/>
</g>
<mask id="mask1_6784_5245" style="mask-type:luminance" maskUnits="userSpaceOnUse" x="4" y="2" width="5" height="7">
<path d="M8.28373 2.15798C8.28373 2.15798 6.23169 1.97358 5.92204 3.04677C5.62682 4.06022 4.93303 8.01987 4.93303 8.01987L6.29516 8.00663L8.28373 2.15798Z" fill="white"/>
</mask>
<g mask="url(#mask1_6784_5245)">
<path d="M8.28373 2.15798L5.48242 1.90625L4.93303 8.01987L7.73435 8.2716L8.28373 2.15798Z" fill="white"/>
<path d="M5.87622 4.1287C5.09896 6.99791 4.76185 9.41156 5.12276 9.50956C5.48367 9.60756 6.40882 7.36431 7.18954 4.48184C7.53246 3.2556 7.8012 2.0099 7.99428 0.75146L7.8913 1.89748L6.95303 1.81317L7.07072 0.503427C6.60116 1.68727 6.2023 2.89781 5.87622 4.1287Z" fill="white"/>
<path d="M5.88784 4.13096C5.1179 6.96919 4.78361 9.35144 5.14248 9.44699C5.50134 9.54254 6.41567 7.31867 7.17661 4.47964C7.51878 3.26749 7.78996 2.03649 7.98878 0.792881L7.88962 1.89629L6.94685 1.81157L7.06072 0.544444C6.59898 1.71575 6.20733 2.91336 5.88784 4.13096Z" fill="white"/>
<path d="M5.89482 4.13237C5.13466 6.93756 4.80524 9.29086 5.1596 9.38601C5.51397 9.48115 6.41688 7.28339 7.18829 4.47921C7.52059 3.2809 7.78143 2.064 7.96943 0.834879L7.8741 1.89568L6.94483 1.81217L7.05467 0.589897C6.59897 1.74709 6.21169 2.92994 5.89482 4.13237Z" fill="white"/>
<path d="M5.90466 4.13612C5.15202 6.90807 4.82747 9.23242 5.18203 9.32533C5.5366 9.41823 6.42339 7.24841 7.17378 4.47625C7.50398 3.29283 7.76347 2.0909 7.95089 0.876774L7.85939 1.89496L6.94362 1.81267L7.04943 0.635248C6.59876 1.77859 6.2165 2.9476 5.90466 4.13612Z" fill="white"/>
<path d="M5.91136 4.13614C5.17524 6.87567 4.84881 9.17045 5.18743 9.26419C5.52604 9.35792 6.41287 7.21296 7.15634 4.46732C7.48391 3.30097 7.74185 2.11627 7.92881 0.919424L7.84134 1.89276L6.94132 1.81188L7.04209 0.690527C6.59706 1.8157 6.21949 2.96626 5.91136 4.13614Z" fill="white"/>
<path d="M5.91763 4.1392C5.17799 6.84224 4.86872 9.12274 5.21079 9.20322C5.55286 9.28369 6.42256 7.1779 7.15341 4.47181C7.47551 3.31758 7.72856 2.14525 7.9112 0.961032L7.82756 1.89176L6.94104 1.81209L7.03858 0.72662C6.59795 1.84116 6.22365 2.98066 5.91763 4.1392Z" fill="white"/>
<path d="M5.92671 4.14124C5.20359 6.81185 4.88895 9.05117 5.22797 9.14042C5.56699 9.22966 6.42382 7.1408 7.14694 4.47019C7.4637 3.32949 7.7132 2.17125 7.89415 1.00142L7.81354 1.8985L6.93602 1.81964L7.03054 0.767813C6.59622 1.86958 6.22763 2.99602 5.92671 4.14124Z" fill="white"/>
<path d="M5.93225 4.14269C5.21789 6.79148 4.90913 8.99064 5.2414 9.07928C5.57366 9.16792 6.42358 7.10556 7.13693 4.46799C7.4513 3.34225 7.69796 2.19878 7.87561 1.04366L7.79963 1.88916L6.93561 1.81152L7.02529 0.813514C6.59638 1.9011 6.23142 3.01271 5.93225 4.14269Z" fill="white"/>
<path d="M5.94114 4.14458C5.23552 6.74667 4.93041 8.93034 5.25818 9.01857C5.58595 9.10681 6.42465 7.06831 7.13047 4.46397C7.44063 3.35282 7.6837 2.22411 7.85837 1.0839L7.78622 1.88679L6.9312 1.80995L7.01686 0.8568C6.59441 1.9309 6.23523 3.02869 5.94114 4.14458Z" fill="white"/>
<path d="M5.94913 4.14649C5.25308 6.7178 4.95305 8.87026 5.27631 8.95809C5.59958 9.04592 6.42747 7.0268 7.12271 4.46447C7.42844 3.37086 7.66838 2.26 7.84127 1.13781L7.77396 1.88688L6.93244 1.81126L7.01306 0.914175C6.59445 1.96961 6.23918 3.04895 5.94913 4.14649Z" fill="white"/>
<path d="M5.95671 4.14914C5.27514 6.68557 4.97322 8.80848 5.30324 8.89692C5.63326 8.98536 6.42847 7.00173 7.11494 4.46122C7.41614 3.37827 7.65281 2.27848 7.82373 1.1676L7.75924 1.88526L6.92672 1.81045L7.00411 0.949252C6.59265 1.99457 6.24292 3.06302 5.95671 4.14914Z" fill="white"/>
<path d="M5.96367 4.14895C5.28512 6.65174 4.99238 8.74834 5.31544 8.83841C5.63851 8.92849 6.4364 6.96545 7.11271 4.46246C7.40872 3.39316 7.64111 2.30733 7.80867 1.21064L7.74821 1.88345L6.92694 1.80965L7.0003 0.993304C6.59284 2.02393 6.2467 3.07764 5.96367 4.14895Z" fill="white"/>
<path d="M5.97226 4.15324C5.30348 6.623 5.01171 8.68352 5.32558 8.77502C5.63944 8.86653 6.43082 6.92552 7.0994 4.458C7.39246 3.40184 7.62363 2.32955 7.79173 1.24655L7.73449 1.88348L6.92223 1.81049L6.99176 1.03676C6.59097 2.05475 6.25055 3.09537 5.97226 4.15324Z" fill="white"/>
<path d="M5.98001 4.15485C5.32182 6.58261 5.03575 8.63007 5.34367 8.712C5.65159 8.79393 6.433 6.88819 7.0873 4.45331C7.3789 3.41451 7.60853 2.35937 7.775 1.29344L7.7222 1.88103L6.92343 1.80925L6.98893 1.08037C6.59198 2.0844 6.25508 3.11102 5.98001 4.15485Z" fill="white"/>
<path d="M5.98867 4.157C5.33739 6.55825 5.0568 8.57003 5.35797 8.65135C5.65914 8.73268 6.42688 6.85284 7.08266 4.452C7.36777 3.43122 7.59196 2.39447 7.75407 1.34719L7.7061 1.88096L6.91859 1.81019L6.97905 1.13738C6.58937 2.1235 6.25866 3.13181 5.98867 4.157Z" fill="white"/>
<path d="M5.99566 4.15995C5.35435 6.52592 5.07844 8.51099 5.37061 8.5915C5.66277 8.67202 6.43729 6.81766 7.07205 4.44885C7.35575 3.43928 7.57894 2.41374 7.74044 1.37768L7.69529 1.88004L6.91903 1.81029L6.97626 1.17336C6.59098 2.14885 6.26355 3.1461 5.99566 4.15995Z" fill="white"/>
<path d="M6.00444 4.16183C5.37291 6.49476 5.09981 8.44843 5.38523 8.52834C5.67065 8.60825 6.43866 6.77592 7.06979 4.44747C7.34772 3.45225 7.56581 2.44134 7.72289 1.42014L7.68258 1.86869L6.91757 1.79994L6.96997 1.21684C6.58922 2.1783 6.2668 3.16174 6.00444 4.16183Z" fill="white"/>
<path d="M6.01308 4.16356C5.38907 6.46326 5.1194 8.37881 5.39952 8.46728C5.67963 8.55576 6.42926 6.75116 7.05143 4.44678C7.3278 3.46651 7.54529 2.47065 7.70275 1.46451L7.66567 1.87717L6.91415 1.80963L6.96333 1.26241C6.58845 2.20954 6.27113 3.17835 6.01308 4.16356Z" fill="white"/>
<path d="M6.01976 4.16507C5.40572 6.42949 5.13971 8.32955 5.42533 8.40721C5.71095 8.48488 6.43977 6.71006 7.0538 4.44564C7.32667 3.47845 7.54219 2.49605 7.69925 1.50354L7.66579 1.87583L6.92328 1.8091L6.96842 1.30674C6.59473 2.23957 6.27793 3.19409 6.01976 4.16507Z" fill="white"/>
<path d="M6.02559 4.16728C5.42133 6.39866 5.16019 8.26976 5.44131 8.34702C5.72243 8.42428 6.44207 6.67578 7.04654 4.44215C7.31129 3.48971 7.51939 2.52248 7.66975 1.54552L7.64013 1.8752L6.90886 1.80949L6.94917 1.36095C6.58615 2.27742 6.27776 3.2145 6.02559 4.16728Z" fill="white"/>
<path d="M6.03392 4.17036C5.44618 6.36932 5.18091 8.21065 5.45773 8.28527C5.73455 8.35988 6.44258 6.63972 7.03707 4.44137C7.63156 2.24302 7.89007 0.401073 7.61325 0.326459L7.4754 1.86047L6.90614 1.80932L6.94322 1.39666C6.58518 2.3024 6.28155 3.2286 6.03392 4.17036Z" fill="white"/>
<path d="M6.0421 4.17297C5.45083 6.33543 5.20373 8.15127 5.47626 8.22324C5.74878 8.29521 6.44518 6.6034 7.03215 4.43828C7.61911 2.27316 7.87051 0.459969 7.59799 0.388002C7.32547 0.316035 6.62906 2.00785 6.0421 4.17297Z" fill="white"/>
<path d="M6.04972 4.17256C5.47273 6.30239 5.2215 8.08847 5.49177 8.16024C5.76204 8.232 6.44478 6.56609 7.02177 4.43625C7.59876 2.30641 7.84999 0.520333 7.57992 0.446325C7.30984 0.372318 6.62651 2.04496 6.04972 4.17256Z" fill="white"/>
<path d="M6.05615 4.17526C5.48893 6.27207 5.24297 8.02471 5.51734 8.10136C5.79172 8.17802 6.45689 6.53088 7.02635 4.43427C7.59582 2.33767 7.82724 0.570158 7.56066 0.507768C7.29408 0.445378 6.62337 2.07846 6.05615 4.17526Z" fill="white"/>
<path d="M6.06623 4.17982C5.50673 6.24115 5.26524 7.96932 5.52326 8.05128C5.78127 8.13325 6.44688 6.50649 7.00412 4.44497C7.56137 2.38344 7.79856 0.652619 7.54403 0.582269C7.28951 0.51192 6.62367 2.11605 6.06623 4.17982Z" fill="white"/>
<path d="M6.07222 4.18022C5.52475 6.20872 5.28343 7.90978 5.54061 7.97584C5.79778 8.04191 6.45056 6.45695 6.99353 4.42805C7.5365 2.39916 7.78232 0.698502 7.52514 0.632436C7.26797 0.56637 6.62194 2.15193 6.07222 4.18022Z" fill="white"/>
<path d="M6.08218 4.18246C5.54079 6.16854 5.29903 7.84921 5.55845 7.91548C5.81788 7.98175 6.45329 6.41332 6.99243 4.42703C7.53157 2.44075 7.77558 0.760278 7.51636 0.691767C7.25713 0.623256 6.62212 2.1872 6.08218 4.18246Z" fill="white"/>
<path d="M6.09665 4.18422C5.55748 6.14564 5.31915 7.78818 5.57387 7.85629C5.8286 7.9244 6.45219 6.38656 6.98216 4.42657C7.51213 2.46659 7.74392 0.821199 7.49594 0.753699C7.24797 0.686199 6.61988 2.22363 6.09665 4.18422Z" fill="white"/>
<path d="M6.09773 4.18635C5.57529 6.1131 5.34777 7.73627 5.59205 7.79439C5.83633 7.85252 6.4567 6.35056 6.98365 4.42422C7.51059 2.49788 7.73361 0.874304 7.48933 0.816179C7.24505 0.758054 6.61693 2.27062 6.09773 4.18635Z" fill="white"/>
<path d="M6.09634 4.18795C5.58366 6.08166 5.36162 7.66915 5.60099 7.73136C5.84037 7.79356 6.45547 6.32504 6.96895 4.42236C7.48243 2.51968 7.70367 0.941161 7.46449 0.876713C7.22532 0.812264 6.61576 2.29484 6.09634 4.18795Z" fill="white"/>
<path d="M6.11266 4.18989C5.60751 6.05036 5.39034 7.6089 5.62501 7.67294C5.85969 7.73698 6.45803 6.27827 6.96073 4.41983C7.46343 2.5614 7.68225 1.00979 7.44838 0.936776C7.21451 0.863761 6.61536 2.33145 6.11266 4.18989Z" fill="white"/>
<path d="M6.11831 4.19293C5.62478 6.02506 5.41083 7.54771 5.64121 7.60911C5.87159 7.67051 6.4583 6.24014 6.95348 4.41494C7.44866 2.58974 7.66116 1.05791 7.43079 0.996515C7.20041 0.935118 6.61349 2.36773 6.11831 4.19293Z" fill="white"/>
<path d="M6.12695 4.19379C5.63929 5.98575 5.42941 7.48842 5.65814 7.54289C5.88687 7.59736 6.45911 6.20186 6.94452 4.40969C7.42992 2.61753 7.63981 1.11486 7.41332 1.06059C7.18684 1.00633 6.61215 2.40387 6.12695 4.19379Z" fill="white"/>
<path d="M6.1352 4.19724C5.65896 5.9631 5.4523 7.42989 5.67388 7.48823C5.89546 7.54658 6.47243 6.17411 6.93907 4.41417C7.4057 2.65423 7.62196 1.18153 7.40038 1.12318C7.1788 1.06484 6.61288 2.44056 6.1352 4.19724Z" fill="white"/>
<path d="M6.14143 4.19888C5.67577 5.92273 5.47338 7.36729 5.69026 7.42748C5.90713 7.48766 6.46369 6.14049 6.92995 4.40991C7.39621 2.67933 7.60046 1.23945 7.38113 1.18131C7.1618 1.12317 6.60954 2.47298 6.14143 4.19888Z" fill="white"/>
<path d="M6.15017 4.20022C5.69204 5.89084 5.49452 7.30645 5.70689 7.36623C5.91927 7.42601 6.46481 6.10045 6.92295 4.40984C7.38108 2.71922 7.5786 1.30361 7.36623 1.24383C7.15385 1.18405 6.60831 2.5096 6.15017 4.20022Z" fill="white"/>
<path d="M6.15873 4.20362C5.70833 5.85876 5.51527 7.2499 5.72355 7.30479C5.93183 7.35968 6.46555 6.06472 6.91391 4.40713C7.36227 2.74955 7.55717 1.3631 7.3491 1.30596C7.14102 1.24883 6.60709 2.54604 6.15873 4.20362Z" fill="white"/>
<path d="M6.16621 4.20445C5.72312 5.8286 5.53738 7.18874 5.74116 7.24323C5.94494 7.29772 6.46725 6.02885 6.90318 4.40859C7.33911 2.78832 7.5318 1.42654 7.32822 1.36981C7.12465 1.31308 6.60684 2.58235 6.16621 4.20445Z" fill="white"/>
<path d="M6.17429 4.20803C5.74343 5.7971 5.55561 7.12993 5.75714 7.18421C5.95867 7.2385 6.4675 5.99329 6.89836 4.40422C7.32923 2.81515 7.51704 1.48232 7.31531 1.43028C7.11358 1.37824 6.60515 2.61896 6.17429 4.20803Z" fill="white"/>
<path d="M6.18054 4.20943C5.76046 5.75425 5.57671 7.0671 5.77454 7.11201C5.97238 7.15692 6.47124 5.94699 6.89233 4.39096C7.31342 2.83492 7.49616 1.53328 7.29833 1.48838C7.10049 1.44347 6.60163 2.65339 6.18054 4.20943Z" fill="white"/>
<path d="M6.18927 4.21091C5.77571 5.73371 5.59763 7.00864 5.79036 7.05987C5.98309 7.1111 6.47114 5.92055 6.88246 4.39755C7.29377 2.87455 7.4739 1.60207 7.28117 1.55084C7.08844 1.4996 6.60039 2.69015 6.18927 4.21091Z" fill="white"/>
<path d="M6.19696 4.21281C5.79337 5.70033 5.62221 6.94875 5.80615 6.99693C5.99008 7.04511 6.47406 5.87454 6.87685 4.39599C7.27963 2.91743 7.45774 1.66738 7.26562 1.60942C7.07349 1.55146 6.60096 2.7208 6.19696 4.21281Z" fill="white"/>
<path d="M6.20585 4.21644C5.81224 5.66869 5.64225 6.87878 5.82293 6.93797C6.0036 6.99716 6.47432 5.84801 6.86814 4.39352C7.26196 2.93903 7.43174 1.73119 7.24881 1.67179C7.06589 1.6124 6.59967 2.76196 6.20585 4.21644Z" fill="white"/>
<path d="M6.21156 4.21709C5.82752 5.63855 5.65935 6.82845 5.83878 6.87623C6.01821 6.924 6.47506 5.803 6.86035 4.39296C7.24563 2.98292 7.41256 1.7816 7.22413 1.73301C7.0357 1.68443 6.59541 2.79788 6.21156 4.21709Z" fill="white"/>
<path d="M6.218 4.22039C5.84393 5.60657 5.68043 6.76977 5.85556 6.81489C6.03069 6.86002 6.47736 5.77654 6.85143 4.39036C7.2255 3.00418 7.39105 1.84343 7.21837 1.79626C7.04569 1.74909 6.59432 2.83442 6.218 4.22039Z" fill="white"/>
<path d="M6.22789 4.22236C5.86154 5.57306 5.70271 6.70954 5.8668 6.75142C6.03088 6.79329 6.47268 5.73876 6.83923 4.38582C7.20577 3.03287 7.3642 1.90088 7.19377 1.85391C7.02334 1.80694 6.59444 2.86942 6.22789 4.22236Z" fill="white"/>
<path d="M6.23379 4.22291C5.88786 5.54832 5.72345 6.64587 5.88938 6.69243C6.05532 6.73899 6.47955 5.70323 6.83838 4.38576C7.1972 3.0683 7.34891 1.96057 7.18278 1.91625C7.01664 1.87193 6.59261 2.90545 6.23379 4.22291Z" fill="white"/>
<path d="M6.24357 4.22651C5.90127 5.51155 5.74563 6.58728 5.90726 6.63119C6.0689 6.67511 6.48131 5.66993 6.83056 4.38326C7.17981 3.09659 7.3285 2.0225 7.16687 1.97858C7.00524 1.93466 6.59222 2.94657 6.24357 4.22651Z" fill="white"/>
<path d="M6.24977 4.22688C5.9105 5.47827 5.76403 6.5277 5.92361 6.56917C6.0832 6.61064 6.48399 5.63381 6.82266 4.38914C7.16133 3.14447 7.30841 2.08832 7.14883 2.04685C6.98924 2.00538 6.58905 2.97548 6.24977 4.22688Z" fill="white"/>
<path d="M6.25929 4.22973C5.92324 5.44524 5.78614 6.46612 5.93877 6.50922C6.09141 6.55233 6.47443 5.59651 6.81069 4.37876C7.14694 3.161 7.28404 2.14013 7.12896 2.09906C6.97387 2.058 6.5888 3.01137 6.25929 4.22973Z" fill="white"/>
<path d="M6.26528 4.23282C5.94575 5.4159 5.80677 6.40722 5.95735 6.44788C6.10794 6.48854 6.4906 5.56208 6.80562 4.37859C7.12065 3.1951 7.26659 2.20215 7.116 2.16149C6.96542 2.12083 6.58726 3.04769 6.26528 4.23282Z" fill="white"/>
<path d="M6.27454 4.23402C5.96254 5.38387 5.82843 6.34623 5.97226 6.38629C6.1161 6.42634 6.48713 5.52823 6.79934 4.37614C7.11155 3.22405 7.24566 2.26169 7.10162 2.22387C6.95759 2.18606 6.58655 3.08418 6.27454 4.23402Z" fill="white"/>
<path d="M6.28098 4.23733C5.97895 5.3519 5.84951 6.28755 5.98904 6.32496C6.12858 6.36236 6.4882 5.49035 6.79043 4.37354C7.09266 3.25672 7.22416 2.32352 7.08462 2.28611C6.94508 2.2487 6.58321 3.12051 6.28098 4.23733Z" fill="white"/>
<path d="M6.28892 4.23857C5.99667 5.32011 5.86904 6.23557 6.00468 6.26585C6.14032 6.29613 6.49037 5.45491 6.78262 4.37337C7.07488 3.29183 7.20251 2.37636 7.06687 2.34609C6.93123 2.31581 6.58118 3.15703 6.28892 4.23857Z" fill="white"/>
<path d="M6.29534 4.23998C6.01285 5.28849 5.8954 6.16643 6.02143 6.20263C6.14747 6.23882 6.4912 5.41738 6.77369 4.36888C7.05617 3.32038 7.17363 2.44243 7.04984 2.40644C6.92605 2.37044 6.58007 3.19168 6.29534 4.23998Z" fill="white"/>
<path d="M6.30508 4.24141C6.03012 5.25667 5.91058 6.1073 6.03907 6.14146C6.16756 6.17561 6.49292 5.38191 6.76788 4.36664C7.04284 3.35138 7.16217 2.50299 7.03369 2.46884C6.9052 2.43468 6.57984 3.22838 6.30508 4.24141Z" fill="white"/>
<path d="M6.31912 4.24544C6.05414 5.22543 5.93027 6.04854 6.06346 6.08086C6.19665 6.11318 6.50139 5.34701 6.76638 4.36702C7.03136 3.38703 7.15503 2.56616 7.02449 2.52957C6.89396 2.49297 6.57961 3.26505 6.31912 4.24544Z" fill="white"/>
<path d="M6.31791 4.24654C6.06045 5.19329 5.95065 5.98602 6.07014 6.01936C6.18963 6.05271 6.49461 5.30917 6.76107 4.36323C7.02753 3.41728 7.12833 2.62375 7.00884 2.5904C6.88935 2.55706 6.57537 3.29978 6.31791 4.24654Z" fill="white"/>
<path d="M6.3187 4.24751C6.07101 5.16123 5.96588 5.92724 6.08107 5.95794C6.19626 5.98864 6.48962 5.27345 6.73711 4.36197C6.9846 3.4505 7.08992 2.68224 6.97474 2.65154C6.85955 2.62084 6.57519 3.33684 6.3187 4.24751Z" fill="white"/>
<path d="M6.33692 4.25159C6.09881 5.13452 5.99445 5.86669 6.10514 5.89698C6.21583 5.92728 6.50002 5.2384 6.73673 4.37117C6.97343 3.50393 7.0792 2.75606 6.96851 2.72577C6.85782 2.69548 6.57464 3.37314 6.33692 4.25159Z" fill="white"/>
<path d="M6.34215 4.25467C6.11421 5.10008 6.01432 5.80778 6.12071 5.83543C6.2271 5.86307 6.49967 5.20254 6.72986 4.35733C6.96005 3.51213 7.05769 2.80422 6.94925 2.77413C6.84081 2.74404 6.57234 3.40946 6.34215 4.25467Z" fill="white"/>
<path d="M6.35091 4.25387C6.13049 5.06605 6.03527 5.74704 6.13716 5.77428C6.23905 5.80153 6.5002 5.16709 6.71837 4.35472C6.93654 3.54234 7.03401 2.86155 6.93212 2.83431C6.83023 2.80707 6.56888 3.44374 6.35091 4.25387Z" fill="white"/>
<path d="M6.35735 4.25718C6.1469 5.03407 6.05655 5.68611 6.15394 5.71295C6.25133 5.73979 6.50332 5.13166 6.71396 4.35253C6.92461 3.57339 7.01475 2.92359 6.91736 2.89675C6.81997 2.86991 6.56779 3.48028 6.35735 4.25718Z" fill="white"/>
<path d="M6.36746 4.2592C6.16433 5.00511 6.07885 5.62819 6.17195 5.65239C6.26504 5.67658 6.5054 5.0968 6.70688 4.34396C6.90835 3.59113 6.99528 2.97722 6.90218 2.95303C6.80909 2.92884 6.56813 3.51534 6.36746 4.2592Z" fill="white"/>
<path d="M6.37459 4.26059C6.18369 4.97142 6.09838 5.56739 6.18842 5.60035C6.27845 5.63331 6.50615 5.06822 6.6993 4.35759C6.89245 3.64696 6.97531 3.05303 6.88548 3.01783C6.79564 2.98263 6.56774 3.54996 6.37459 4.26059Z" fill="white"/>
<path d="M6.38319 4.2635C6.20002 4.93885 6.11958 5.50587 6.20592 5.52945C6.29226 5.55304 6.50794 5.02078 6.69111 4.34543C6.87429 3.67008 6.95473 3.10306 6.86839 3.07948C6.78204 3.05589 6.56657 3.58591 6.38319 4.2635Z" fill="white"/>
<path d="M6.38984 4.26447C6.21644 4.90679 6.14087 5.44485 6.22271 5.46803C6.30455 5.49121 6.50861 4.9873 6.68426 4.34519C6.85991 3.70307 6.93343 3.16256 6.85139 3.14163C6.76935 3.12069 6.56324 3.62215 6.38984 4.26447Z" fill="white"/>
<path d="M6.39886 4.26847C6.23298 4.87755 6.16309 5.37769 6.23757 5.40699C6.31206 5.43629 6.5053 4.95175 6.67568 4.34308C6.84606 3.7344 6.91145 3.23386 6.83696 3.20456C6.76248 3.17525 6.56248 3.65918 6.39886 4.26847Z" fill="white"/>
<path d="M6.40513 4.2716C6.24923 4.8454 6.1832 5.3278 6.25399 5.34773C6.32478 5.36766 6.5193 4.91941 6.66886 4.34051C6.81841 3.76162 6.89079 3.28431 6.81775 3.26418C6.74471 3.24405 6.56124 3.69555 6.40513 4.2716Z" fill="white"/>
<path d="M6.41389 4.27081C6.26551 4.81137 6.20435 5.26482 6.27064 5.28435C6.33694 5.30387 6.51349 4.87887 6.65962 4.3381C6.80575 3.79734 6.87161 3.34205 6.80287 3.32457C6.73412 3.30708 6.56002 3.73004 6.41389 4.27081Z" fill="white"/>
<path d="M6.42068 4.27414C6.28452 4.77963 6.22353 5.20597 6.28777 5.22304C6.35202 5.24012 6.5147 4.84327 6.65331 4.33574C6.79191 3.82821 6.85045 3.40391 6.78621 3.38683C6.72197 3.36976 6.55928 3.76661 6.42068 4.27414Z" fill="white"/>
<path d="M6.42744 4.28944C6.29881 4.7617 6.24269 5.15908 6.30183 5.18248C6.36097 5.20588 6.51509 4.82861 6.64147 4.35615C6.76785 3.88369 6.82622 3.48651 6.76708 3.46311C6.70794 3.43971 6.55503 3.80352 6.42744 4.28944Z" fill="white"/>
<path d="M6.43371 4.28875C6.31465 4.73022 6.2636 5.0964 6.31884 5.11267C6.37409 5.12894 6.51638 4.78226 6.63524 4.34303C6.7541 3.90381 6.80535 3.53538 6.75011 3.51911C6.69487 3.50285 6.55277 3.84729 6.43371 4.28875Z" fill="white"/>
<path d="M6.44211 4.29001C6.33323 4.69396 6.28664 5.03568 6.33759 5.0493C6.38853 5.06292 6.51921 4.74458 6.6283 4.33839C6.73738 3.93221 6.78601 3.59293 6.73507 3.57931C6.68412 3.56569 6.55425 3.87505 6.44211 4.29001Z" fill="white"/>
<path d="M6.45046 4.28989C6.3489 4.66284 6.30739 4.97336 6.35383 4.98658C6.40028 4.99979 6.51954 4.70756 6.6213 4.33237C6.72306 3.95717 6.76437 3.64889 6.71793 3.63568C6.67148 3.62246 6.55263 3.91021 6.45046 4.28989Z" fill="white"/>
<path d="M6.45765 4.2906C6.36832 4.62848 6.32697 4.91188 6.37137 4.92266C6.41577 4.93343 6.52115 4.66934 6.61274 4.33166C6.70433 3.99399 6.74567 3.71058 6.70127 3.69981C6.65688 3.68904 6.54985 3.9462 6.45765 4.2906Z" fill="white"/>
<path d="M6.46581 4.29241C6.394 4.47307 6.36635 4.6682 6.38516 4.86167C6.42567 4.86531 6.52373 4.63221 6.60534 4.32982C6.68695 4.02742 6.72383 3.76848 6.68394 3.75811C6.64404 3.74774 6.54822 3.98104 6.46581 4.29241Z" fill="white"/>
<path d="M6.47279 4.29334C6.40952 4.45437 6.38536 4.62806 6.40229 4.80021C6.4383 4.80345 6.52494 4.59646 6.59678 4.32709C6.66862 4.05773 6.70268 3.83019 6.66728 3.82022C6.56587 3.96039 6.49922 4.12252 6.47279 4.29334Z" fill="white"/>
<path d="M6.48185 4.29327C6.42502 4.43484 6.40347 4.58805 6.41905 4.73979C6.45055 4.74262 6.52578 4.56173 6.59009 4.3256C6.64693 4.18403 6.66848 4.03082 6.6529 3.87908C6.62221 3.86728 6.54657 4.05265 6.48185 4.29327Z" fill="white"/>
<path d="M6.49104 4.29441C6.44359 4.41574 6.42487 4.54635 6.43633 4.6761C6.46333 4.67852 6.52734 4.5215 6.58168 4.32065C6.63046 4.20046 6.64917 4.07024 6.63619 3.94121C6.61 3.92981 6.54579 4.08908 6.49104 4.29441Z" fill="white"/>
<path d="M6.49767 4.29405C6.45066 4.46391 6.43121 4.60459 6.45331 4.6111C6.4754 4.61761 6.53045 4.48464 6.57522 4.31458C6.61999 4.14452 6.64168 4.00404 6.61959 3.99753C6.59749 3.99103 6.54244 4.12399 6.49767 4.29405Z" fill="white"/>
<path d="M6.50581 4.29516C6.46856 4.43198 6.45173 4.54351 6.46933 4.54961C6.48693 4.55571 6.53056 4.44885 6.56555 4.31183C6.60055 4.1748 6.61962 4.06348 6.60182 4.05962C6.58403 4.05575 6.55185 4.16138 6.50581 4.29516Z" fill="white"/>
<path d="M6.51258 4.29635C6.48531 4.3979 6.47315 4.48272 6.49545 4.48698C6.51775 4.49125 6.54075 4.41193 6.56802 4.31038C6.59529 4.20883 6.60745 4.12401 6.58515 4.11975C6.56285 4.11548 6.54865 4.19786 6.51258 4.29635Z" fill="white"/>
<path d="M6.52288 4.29764C6.50795 4.33852 6.50399 4.38259 6.51139 4.42547C6.53534 4.38916 6.55139 4.34825 6.55848 4.30536C6.57823 4.23705 6.58551 4.18118 6.56976 4.17977C6.55401 4.17835 6.54673 4.23422 6.52288 4.29764Z" fill="white"/>
<path d="M6.53964 4.29754C6.53182 4.31818 6.52981 4.34056 6.53382 4.36226C6.53891 4.34109 6.54087 4.31928 6.53964 4.29754C6.54616 4.27663 6.54814 4.25456 6.54546 4.23282C6.53763 4.25346 6.53562 4.27584 6.53964 4.29754Z" fill="white"/>
</g>
<path style="mix-blend-mode:multiply" d="M6.3044 7.99385L4.94107 8.02055C4.94107 8.02055 5.03303 7.35057 5.19377 6.57147L6.5708 6.69521L6.3044 7.99385Z" fill="url(#paint1_linear_6784_5245)"/>
<path style="mix-blend-mode:multiply" d="M18.4318 9.08429L19.7685 9.35362C19.7685 9.35362 19.7974 8.67798 19.7804 7.8829L18.4102 7.75977L18.4318 9.08429Z" fill="url(#paint2_linear_6784_5245)"/>
<path d="M5.91667 8.10927L8.01308 2.44892C8.11852 2.19525 8.30013 1.98035 8.53301 1.8337C8.76589 1.68705 9.03862 1.61584 9.31379 1.62983L16.6197 2.28636C16.891 2.32311 17.1445 2.44241 17.3454 2.62797C17.5463 2.81353 17.6849 3.05632 17.7423 3.32322L18.796 9.26664L5.91667 8.10927Z" fill="#D6EBFF"/>
<path d="M5.92513 7.99472L5.90938 7.9933L4.84894 7.5521C4.83545 7.54623 4.82479 7.53533 4.81923 7.52174C4.81368 7.50815 4.81366 7.49294 4.81919 7.47934C4.82184 7.47222 4.82598 7.46573 4.83132 7.46031C4.83666 7.45488 4.84309 7.45064 4.85019 7.44787C4.85729 7.44509 4.8649 7.44384 4.87252 7.4442C4.88014 7.44455 4.8876 7.44651 4.89442 7.44993L5.95506 7.88889C5.96855 7.89476 5.97921 7.90566 5.98476 7.91925C5.99032 7.93284 5.99034 7.94805 5.98481 7.96165C5.98018 7.97315 5.97172 7.98271 5.96086 7.98873C5.94999 7.99475 5.93738 7.99686 5.92513 7.99472Z" fill="black"/>
<path d="M6.04131 8.01419C6.01966 8.01259 5.99902 8.00442 5.98217 7.99078L5.11 7.32234C5.08608 7.304 5.07045 7.27694 5.06653 7.24712C5.06262 7.2173 5.07075 7.18716 5.08913 7.16333C5.10752 7.1395 5.13465 7.12393 5.16456 7.12005C5.19447 7.11616 5.22472 7.12428 5.24863 7.14262L6.1206 7.81332C6.14419 7.83165 6.15952 7.85856 6.16324 7.88814C6.16696 7.91771 6.15876 7.94755 6.14045 7.9711C6.12916 7.9863 6.11406 7.99828 6.09666 8.00585C6.07926 8.01341 6.06018 8.01628 6.04131 8.01419Z" fill="black"/>
<path d="M5.23035 7.12001C5.21725 7.26578 5.06394 7.63408 4.91994 7.62114L3.56991 7.49982C3.42181 7.48199 3.33887 7.09246 3.35156 6.95117L5.23035 7.12001Z" fill="#363A39"/>
<path d="M3.4043 7.2793C3.44167 7.39344 3.49661 7.48881 3.56861 7.49528L4.91864 7.61659C4.98839 7.62286 5.06171 7.53902 5.11883 7.43337L3.4043 7.2793Z" fill="url(#paint3_linear_6784_5245)"/>
<path d="M18.8674 9.15686C18.8557 9.15622 18.8446 9.15164 18.8358 9.14387C18.827 9.1361 18.8212 9.12561 18.8191 9.11409C18.8173 9.10696 18.817 9.09954 18.8182 9.09227C18.8193 9.08501 18.822 9.07807 18.8259 9.07186C18.8299 9.06566 18.8351 9.06032 18.8412 9.05619C18.8472 9.05205 18.8541 9.04919 18.8614 9.0478L19.981 8.80477C19.9886 8.80172 19.9968 8.80036 20.005 8.80078C20.0132 8.8012 20.0212 8.80339 20.0284 8.80719C20.0357 8.811 20.042 8.81633 20.047 8.82282C20.052 8.82931 20.0555 8.8368 20.0572 8.84477C20.059 8.85274 20.0591 8.86101 20.0573 8.86899C20.0556 8.87696 20.0521 8.88447 20.0472 8.89098C20.0422 8.89749 20.0359 8.90285 20.0287 8.90669C20.0215 8.91053 20.0135 8.91276 20.0053 8.91321L18.8857 9.15624L18.8674 9.15686Z" fill="black"/>
<path d="M18.7506 9.15503C18.7318 9.15311 18.7138 9.14663 18.6982 9.13615C18.6825 9.12568 18.6696 9.11153 18.6607 9.09495C18.6537 9.0818 18.6494 9.06736 18.6481 9.05251C18.6468 9.03766 18.6485 9.02271 18.6532 9.00855C18.6579 8.99439 18.6653 8.98132 18.6752 8.97013C18.6851 8.95894 18.6971 8.94986 18.7106 8.94344L19.6882 8.43895C19.715 8.42547 19.746 8.42315 19.7746 8.43249C19.8031 8.44184 19.8267 8.46209 19.8402 8.48879C19.8538 8.51549 19.8561 8.54645 19.8468 8.57487C19.8374 8.60328 19.8171 8.62682 19.7903 8.6403L18.8062 9.14194C18.7894 9.15176 18.77 9.15632 18.7506 9.15503Z" fill="black"/>
<path d="M19.7109 8.42188C19.6978 8.56765 19.7808 8.95718 19.927 8.97033L21.2771 9.09164C21.4211 9.10458 21.5744 8.73628 21.5875 8.59051L19.7109 8.42188Z" fill="#363A39"/>
<path d="M21.4802 8.90407C21.423 9.00972 21.3497 9.09356 21.28 9.0873L19.9299 8.96598C19.8579 8.95951 19.803 8.86414 19.7656 8.75L21.4802 8.90407Z" fill="url(#paint4_linear_6784_5245)"/>
<g style="mix-blend-mode:multiply">
<path d="M6.82415 7.88795C6.81798 7.88683 6.8121 7.8845 6.80684 7.8811C6.80158 7.87771 6.79705 7.8733 6.79351 7.86815C6.78996 7.863 6.78748 7.8572 6.78619 7.85108C6.78491 7.84497 6.78486 7.83866 6.78603 7.83253C7.40572 4.74794 9.24374 1.63492 9.26231 1.60494C9.26523 1.59934 9.2693 1.59441 9.27425 1.59048C9.2792 1.58655 9.28493 1.5837 9.29106 1.58212C9.29719 1.58054 9.30359 1.58026 9.30984 1.5813C9.31608 1.58235 9.32204 1.58469 9.32732 1.58817C9.3327 1.59132 9.33741 1.5955 9.34117 1.60046C9.34493 1.60543 9.34767 1.61108 9.34924 1.6171C9.35081 1.62312 9.35116 1.62939 9.3503 1.63555C9.34943 1.64171 9.34735 1.64763 9.34418 1.65299C9.32541 1.68521 7.47531 4.78132 6.87543 7.84734C6.87328 7.85916 6.86689 7.86979 6.85746 7.87726C6.84802 7.88473 6.83619 7.88853 6.82415 7.88795Z" fill="#C7C2A9"/>
</g>
<g style="mix-blend-mode:multiply">
<path d="M17.94 8.88735C17.9281 8.88577 17.9171 8.87993 17.9092 8.87089C17.9012 8.86186 17.8968 8.85026 17.8968 8.83825C17.8442 5.71359 16.5847 2.33805 16.572 2.30299C16.5682 2.29118 16.569 2.27839 16.5742 2.26714C16.5794 2.25589 16.5886 2.247 16.6001 2.24222C16.6061 2.23971 16.6125 2.23846 16.619 2.23855C16.6255 2.23863 16.632 2.24004 16.6379 2.24269C16.6438 2.24534 16.6491 2.24918 16.6535 2.25397C16.6579 2.25875 16.6612 2.26438 16.6634 2.27051C16.6763 2.30332 17.9433 5.69537 17.9944 8.83797C17.9944 8.84422 17.9932 8.85041 17.9909 8.8562C17.9885 8.86199 17.9851 8.86725 17.9807 8.87169C17.9762 8.87613 17.971 8.87965 17.9652 8.88206C17.9594 8.88447 17.9532 8.88571 17.947 8.88571L17.94 8.88735Z" fill="#C7C2A9"/>
</g>
<path d="M18.836 9.14908C16.7032 8.82855 14.3788 8.39359 12.3987 8.21566C10.4187 8.03773 7.98577 8.12883 5.89944 7.99787C6.51982 7.88405 6.6549 6.88561 7.22638 6.76062C10.0873 6.65146 14.8597 7.08032 17.656 7.69107C18.1964 7.91146 18.2436 8.92628 18.836 9.14908Z" fill="url(#paint5_linear_6784_5245)"/>
<path d="M1.88984 44.0558C1.96832 44.1842 2.07578 44.2927 2.20368 44.3724C2.33157 44.4522 2.47637 44.5012 2.62654 44.5154L15.5418 45.676C15.6707 45.6876 15.8006 45.6733 15.9237 45.6339C16.0469 45.5944 16.1609 45.5307 16.2588 45.4465C15.4162 44.9028 12.5059 44.2999 9.03178 43.9877C5.79846 43.6971 3.0137 43.7408 1.88984 44.0558Z" fill="#3D413F"/>
<path d="M19.7777 9.35378C19.8111 8.98149 16.4977 8.57296 12.3959 8.20436C8.29403 7.83575 4.96083 7.647 4.92737 8.01929L1.7421 43.4653C1.72419 43.6718 1.77406 43.8786 1.88421 44.0546C3.00806 43.7396 5.79282 43.6959 9.02614 43.9865C12.5092 44.2995 15.4106 44.9016 16.2531 45.4453C16.4461 45.2817 16.5664 45.0488 16.5881 44.7971L19.7777 9.35378Z" fill="white"/>
<g style="mix-blend-mode:multiply">
<path d="M12.3978 8.21607C8.29823 7.84767 4.96278 7.65872 4.92933 8.03101L4.90554 8.29565C4.939 7.92336 8.2722 8.11211 12.374 8.48071C16.4759 8.84932 19.7893 9.25785 19.7559 9.63014L19.7807 9.35429C19.8119 8.9818 16.4974 8.58447 12.3978 8.21607Z" fill="#313534"/>
</g>
<g style="mix-blend-mode:multiply">
<path d="M13.0515 14.1588L10.392 13.9198C9.91229 13.8767 9.48861 14.2294 9.44564 14.7075L9.10303 18.5201C9.06007 18.9982 9.41409 19.4207 9.89376 19.4638L12.5533 19.7028C13.033 19.7459 13.4567 19.3933 13.4996 18.9152L13.8422 15.1026C13.8852 14.6245 13.5312 14.2019 13.0515 14.1588Z" fill="#323634"/>
<path d="M13.0499 14.1857L10.3926 13.9469C9.9266 13.905 9.51499 14.2476 9.47325 14.7121L9.13104 18.5202C9.0893 18.9847 9.43324 19.3952 9.89924 19.4371L12.5565 19.6759C13.0225 19.7177 13.4341 19.3751 13.4759 18.9107L13.8181 15.1025C13.8598 14.6381 13.5159 14.2276 13.0499 14.1857Z" fill="#323634"/>
<path d="M13.0466 14.2128L10.3871 13.9738C9.93599 13.9333 9.53756 14.2649 9.49715 14.7145L9.15475 18.5249C9.11434 18.9745 9.44727 19.3718 9.89836 19.4124L12.5579 19.6513C13.009 19.6919 13.4074 19.3603 13.4478 18.9106L13.7902 15.1003C13.8307 14.6507 13.4977 14.2533 13.0466 14.2128Z" fill="#323634"/>
<path d="M13.045 14.2377L10.3855 13.9987C9.94929 13.9595 9.56403 14.2802 9.52496 14.7149L9.18235 18.5275C9.14328 18.9623 9.4652 19.3465 9.90138 19.3857L12.5609 19.6247C12.9971 19.6639 13.3824 19.3432 13.4214 18.9085L13.7641 15.0959C13.8031 14.6611 13.4812 14.2769 13.045 14.2377Z" fill="#323634"/>
<path d="M10.3822 14.0258L13.0418 14.2648C13.2447 14.283 13.432 14.3808 13.5626 14.5367C13.6933 14.6926 13.7564 14.8938 13.7383 15.096L13.3956 18.9086C13.3775 19.1109 13.2794 19.2976 13.1231 19.4277C12.9668 19.5578 12.765 19.6207 12.5621 19.6024L9.90255 19.3634C9.69966 19.3452 9.51229 19.2474 9.38167 19.0915C9.25105 18.9356 9.18788 18.7344 9.20606 18.5322L9.54867 14.7196C9.55738 14.6193 9.58588 14.5218 9.63255 14.4326C9.67922 14.3434 9.74312 14.2643 9.82059 14.1998C9.89805 14.1353 9.98755 14.0867 10.0839 14.0569C10.1803 14.027 10.2817 14.0164 10.3822 14.0258Z" fill="#323634"/>
<path d="M13.0399 14.2914L10.3825 14.0526C9.97495 14.016 9.61494 14.3157 9.57843 14.7219L9.23602 18.5323C9.19951 18.9386 9.50034 19.2976 9.90793 19.3342L12.5652 19.573C12.9728 19.6096 13.3328 19.31 13.3694 18.9037L13.7118 15.0934C13.7483 14.6871 13.4474 14.3281 13.0399 14.2914Z" fill="#323634"/>
<path d="M13.0366 14.3185L10.377 14.0795C9.98435 14.0442 9.6375 14.3329 9.60233 14.7243L9.25992 18.5347C9.22475 18.9261 9.51457 19.272 9.90725 19.3073L12.5668 19.5463C12.9595 19.5816 13.3063 19.2929 13.3415 18.9015L13.6839 15.0911C13.7191 14.6997 13.4293 14.3538 13.0366 14.3185Z" fill="#323634"/>
<path d="M13.035 14.3434L10.3754 14.1044C9.99765 14.0705 9.66398 14.3482 9.63014 14.7248L9.28753 18.5374C9.25369 18.9139 9.5325 19.2467 9.91028 19.2806L12.5698 19.5196C12.9476 19.5535 13.2813 19.2758 13.3151 18.8993L13.6577 15.0867C13.6916 14.7101 13.4127 14.3774 13.035 14.3434Z" fill="#323634"/>
<path d="M13.0334 14.3703L10.3761 14.1315C10.012 14.0988 9.69036 14.3665 9.65775 14.7294L9.31534 18.5397C9.28272 18.9027 9.55145 19.2234 9.91555 19.2561L12.5729 19.4949C12.937 19.5276 13.2586 19.2599 13.2912 18.897L13.6336 15.0867C13.6662 14.7237 13.3975 14.403 13.0334 14.3703Z" fill="#323634"/>
<path d="M13.0301 14.3974L10.3705 14.1584C10.0214 14.127 9.71293 14.3837 9.68165 14.7318L9.33924 18.5421C9.30796 18.8902 9.56568 19.1978 9.91487 19.2291L12.5744 19.4681C12.9236 19.4995 13.232 19.2428 13.2633 18.8948L13.6057 15.0844C13.637 14.7363 13.3793 14.4288 13.0301 14.3974Z" fill="#323634"/>
<path d="M13.0285 14.4203L10.3689 14.1813C10.0347 14.1513 9.7394 14.3971 9.70946 14.7302L9.36685 18.5428C9.33691 18.876 9.58362 19.1705 9.9179 19.2005L12.5775 19.4395C12.9117 19.4696 13.207 19.2238 13.2369 18.8906L13.5795 15.078C13.6095 14.7448 13.3628 14.4504 13.0285 14.4203Z" fill="#323634"/>
<path d="M10.3654 14.2082L13.0249 14.4472C13.1789 14.461 13.3211 14.5353 13.4202 14.6536C13.5193 14.7719 13.5672 14.9245 13.5535 15.078L13.2108 18.8906C13.197 19.0441 13.1227 19.1857 13.004 19.2845C12.8854 19.3832 12.7323 19.4309 12.5783 19.417L9.91877 19.1781C9.76541 19.1643 9.62378 19.0903 9.52505 18.9725C9.42632 18.8547 9.37857 18.7026 9.3923 18.5497L9.73492 14.7371C9.74145 14.6611 9.76294 14.5871 9.79816 14.5194C9.83337 14.4517 9.88163 14.3916 9.94018 14.3424C9.99872 14.2933 10.0664 14.2562 10.1394 14.2332C10.2123 14.2101 10.2891 14.2017 10.3654 14.2082Z" fill="#323634"/>
</g>
<path d="M10.3673 14.2082L13.0269 14.4472C13.1808 14.461 13.323 14.5353 13.4221 14.6536C13.5213 14.7719 13.5692 14.9245 13.5554 15.078L13.2128 18.8906C13.199 19.0441 13.1246 19.1857 13.006 19.2845C12.8874 19.3832 12.7342 19.4309 12.5803 19.417L9.92073 19.1781C9.76736 19.1643 9.62573 19.0903 9.527 18.9725C9.42827 18.8547 9.38052 18.7026 9.39426 18.5497L9.73687 14.7371C9.7434 14.6611 9.76489 14.5871 9.80011 14.5194C9.83533 14.4517 9.88359 14.3916 9.94213 14.3424C10.0007 14.2933 10.0684 14.2562 10.1413 14.2332C10.2143 14.2101 10.2911 14.2017 10.3673 14.2082Z" fill="#35475E"/>
<g style="mix-blend-mode:multiply">
<path d="M11.2781 33.9108L8.61852 33.6718C8.13885 33.6287 7.71517 33.9813 7.67221 34.4594L7.3296 38.272C7.28663 38.7501 7.64065 39.1727 8.12032 39.2158L10.7799 39.4548C11.2595 39.4979 11.6832 39.1452 11.7262 38.6671L12.0688 34.8545C12.1118 34.3764 11.7577 33.9539 11.2781 33.9108Z" fill="#323634"/>
<path d="M11.2765 33.9377L8.61916 33.6989C8.15316 33.657 7.74155 33.9996 7.69981 34.4641L7.35761 38.2722C7.31587 38.7367 7.6598 39.1471 8.1258 39.189L10.7831 39.4278C11.2491 39.4697 11.6607 39.1271 11.7025 38.6626L12.0447 34.8545C12.0864 34.39 11.7425 33.9795 11.2765 33.9377Z" fill="#323634"/>
<path d="M11.2732 33.9647L8.61364 33.7257C8.16255 33.6852 7.76412 34.0168 7.72372 34.4664L7.38131 38.2768C7.3409 38.7264 7.67383 39.1238 8.12492 39.1643L10.7845 39.4033C11.2356 39.4438 11.634 39.1122 11.6744 38.6626L12.0168 34.8522C12.0572 34.4026 11.7243 34.0053 11.2732 33.9647Z" fill="#323634"/>
<path d="M11.2716 33.9897L8.61203 33.7507C8.17586 33.7115 7.79059 34.0321 7.75153 34.4669L7.40892 38.2795C7.36985 38.7142 7.69177 39.0984 8.12794 39.1376L10.7875 39.3766C11.2237 39.4158 11.6089 39.0952 11.648 38.6604L11.9906 34.8478C12.0297 34.4131 11.7078 34.0288 11.2716 33.9897Z" fill="#323634"/>
<path d="M11.2703 34.0167L8.60847 33.7775C8.18721 33.7397 7.81511 34.0494 7.77738 34.4693L7.43477 38.2819C7.39704 38.7018 7.70795 39.0728 8.12922 39.1107L10.791 39.3499C11.2123 39.3877 11.5844 39.078 11.6221 38.6582L11.9647 34.8455C12.0025 34.4257 11.6915 34.0546 11.2703 34.0167Z" fill="#323634"/>
<path d="M11.2664 34.0434L8.60911 33.8046C8.20151 33.768 7.8415 34.0676 7.80499 34.4739L7.46258 38.2843C7.42607 38.6905 7.7269 39.0496 8.13449 39.0862L10.7918 39.325C11.1994 39.3616 11.5594 39.0619 11.5959 38.6557L11.9383 34.8453C11.9748 34.4391 11.674 34.08 11.2664 34.0434Z" fill="#323634"/>
<path d="M11.2651 34.0685L8.60555 33.8295C8.21286 33.7942 7.86602 34.0829 7.83085 34.4743L7.48844 38.2847C7.45326 38.6761 7.74308 39.022 8.13577 39.0573L10.7953 39.2963C11.188 39.3316 11.5349 39.0429 11.57 38.6515L11.9124 34.8411C11.9476 34.4497 11.6578 34.1038 11.2651 34.0685Z" fill="#323634"/>
<path d="M11.2615 34.0954L8.60198 33.8564C8.22421 33.8224 7.89054 34.1002 7.8567 34.4767L7.51409 38.2893C7.48025 38.6658 7.75907 38.9986 8.13684 39.0326L10.7964 39.2716C11.1742 39.3055 11.5078 39.0278 11.5417 38.6512L11.8843 34.8386C11.9181 34.4621 11.6393 34.1293 11.2615 34.0954Z" fill="#323634"/>
<path d="M11.2599 34.1223L8.60262 33.8835C8.23852 33.8507 7.91692 34.1184 7.88431 34.4813L7.5419 38.2917C7.50929 38.6546 7.77801 38.9753 8.14211 39.0081L10.7994 39.2468C11.1635 39.2796 11.4851 39.0119 11.5177 38.649L11.8601 34.8386C11.8928 34.4757 11.624 34.155 11.2599 34.1223Z" fill="#323634"/>
<path d="M11.2567 34.1493L8.59711 33.9103C8.24792 33.879 7.93949 34.1357 7.90821 34.4837L7.5658 38.2941C7.53453 38.6421 7.79224 38.9497 8.14143 38.9811L10.801 39.2201C11.1502 39.2515 11.4586 38.9948 11.4899 38.6467L11.8323 34.8363C11.8636 34.4883 11.6059 34.1807 11.2567 34.1493Z" fill="#323634"/>
<path d="M11.2551 34.1723L8.5955 33.9333C8.26122 33.9033 7.96596 34.149 7.93602 34.4822L7.59341 38.2948C7.56347 38.628 7.81018 38.9224 8.14446 38.9525L10.804 39.1915C11.1383 39.2215 11.4336 38.9758 11.4635 38.6426L11.8061 34.83C11.836 34.4968 11.5893 34.2023 11.2551 34.1723Z" fill="#323634"/>
<path d="M8.59197 33.9602L11.2515 34.1992C11.3283 34.2061 11.403 34.2281 11.4712 34.2639C11.5395 34.2998 11.5999 34.3488 11.649 34.4081C11.6981 34.4674 11.7349 34.5358 11.7573 34.6094C11.7797 34.683 11.7872 34.7602 11.7794 34.8367L11.4368 38.6493C11.43 38.7253 11.4082 38.7992 11.3727 38.8667C11.3373 38.9343 11.2888 38.9943 11.23 39.0431C11.1713 39.092 11.1035 39.1289 11.0304 39.1517C10.9574 39.1744 10.8806 39.1826 10.8043 39.1757L8.14477 38.9367C8.06864 38.9299 7.9946 38.9081 7.92692 38.8727C7.85923 38.8373 7.79921 38.7889 7.75032 38.7303C7.70142 38.6717 7.66461 38.6041 7.64199 38.5313C7.61937 38.4585 7.61138 38.382 7.6185 38.3062L7.96111 34.4936C7.96708 34.4171 7.98817 34.3426 8.02317 34.2744C8.05817 34.2061 8.10638 34.1454 8.16503 34.0958C8.22367 34.0463 8.29159 34.0087 8.36487 33.9855C8.43815 33.9622 8.51533 33.9536 8.59197 33.9602Z" fill="#323634"/>
</g>
<path d="M8.59197 33.9621L11.2515 34.2011C11.3283 34.208 11.403 34.23 11.4712 34.2659C11.5395 34.3018 11.5999 34.3508 11.649 34.4101C11.6981 34.4694 11.7349 34.5378 11.7573 34.6113C11.7797 34.6849 11.7872 34.7622 11.7794 34.8386L11.4368 38.6512C11.43 38.7272 11.4082 38.8011 11.3727 38.8687C11.3373 38.9363 11.2888 38.9962 11.23 39.0451C11.1713 39.094 11.1035 39.1309 11.0304 39.1536C10.9574 39.1764 10.8806 39.1845 10.8043 39.1777L8.14477 38.9387C8.06864 38.9319 7.9946 38.9101 7.92692 38.8747C7.85923 38.8392 7.79921 38.7909 7.75032 38.7323C7.70142 38.6737 7.66461 38.6061 7.64199 38.5333C7.61937 38.4605 7.61138 38.384 7.6185 38.3081L7.96111 34.4955C7.96708 34.4191 7.98817 34.3446 8.02317 34.2763C8.05817 34.208 8.10638 34.1474 8.16503 34.0978C8.22367 34.0482 8.29159 34.0107 8.36487 33.9874C8.43815 33.9641 8.51533 33.9555 8.59197 33.9621Z" fill="#35475E"/>
<path d="M6.10667 44.4556C6.09576 44.2489 5.2268 44.1504 4.15192 44.2234L2.20011 44.3623C2.33168 44.4492 2.48273 44.5024 2.63984 44.5171L6.11842 44.8297C6.11842 44.8297 6.10858 44.6615 6.10667 44.4556Z" fill="url(#paint6_linear_6784_5245)"/>
<path d="M12.1462 44.9982C12.1938 44.7967 13.0664 44.8548 14.1088 45.118L16.0068 45.6028C15.8618 45.6645 15.7038 45.6899 15.5465 45.6768L12.059 45.3634C12.059 45.3634 12.0986 45.1996 12.1462 44.9982Z" fill="url(#paint7_linear_6784_5245)"/>
<g style="mix-blend-mode:multiply">
<path d="M16.219 45.501C15.3609 44.9536 12.409 44.3582 9.02266 44.0539C5.90859 43.7741 3.04833 43.7997 1.90587 44.1198L1.86991 43.9899C3.03363 43.6604 5.85768 43.6339 9.03475 43.9194C12.4391 44.2253 15.4243 44.8282 16.2927 45.3878L16.219 45.501Z" fill="#B3B3B3"/>
</g>
<path d="M11.4192 45.1476L6.77734 44.7305L6.76324 44.8875L11.4051 45.3046L11.4192 45.1476Z" fill="url(#paint8_linear_6784_5245)"/>
<path d="M11.8862 8.16989L11.3867 8.125L11.3631 8.3874L11.8627 8.43228L11.8862 8.16989Z" fill="#60605F"/>
<path d="M12.6479 8.23825L12.1484 8.19336L12.1247 8.458L12.6242 8.50289L12.6479 8.23825Z" fill="#60605F"/>
<path d="M12.9102 8.26172L12.8864 8.52636L13.3859 8.57125L13.4097 8.30661L12.9102 8.26172Z" fill="#60605F"/>
<g style="mix-blend-mode:screen">
<path d="M9.07146 7.498C9.13348 7.46531 9.18891 7.44165 9.23983 7.42712C9.65691 7.4133 10.0742 7.40713 10.4914 7.4086C10.4045 7.46014 10.3184 7.513 10.2331 7.56716C9.8469 7.54327 9.45786 7.52043 9.07146 7.498Z" fill="url(#paint9_linear_6784_5245)" style="mix-blend-mode:screen"/>
<path d="M9.07146 7.498C9.13348 7.46531 9.18891 7.44165 9.23983 7.42712C9.65691 7.4133 10.0742 7.40713 10.4914 7.4086C10.4045 7.46014 10.3184 7.513 10.2331 7.56716C9.8469 7.54327 9.45786 7.52043 9.07146 7.498Z" stroke="#66798D"/>
</g>
<path d="M16.9794 2.22523C16.9793 2.24766 16.9703 2.26915 16.9545 2.28506C16.9386 2.30097 16.9171 2.31004 16.8946 2.31031L9.01947 1.60262C8.99737 1.59835 8.97784 1.58559 8.96508 1.56711C8.95231 1.54863 8.94734 1.52589 8.95123 1.5038C8.95128 1.49281 8.95352 1.48194 8.95781 1.47182C8.96209 1.4617 8.96835 1.45253 8.97621 1.44483C8.98407 1.43713 8.99338 1.43106 9.0036 1.42696C9.01383 1.42287 9.02477 1.42083 9.03579 1.42096L16.911 2.12865C16.9218 2.13048 16.9322 2.13444 16.9416 2.14029C16.9509 2.14615 16.959 2.15378 16.9653 2.16276C16.9717 2.17173 16.9762 2.18188 16.9786 2.1926C16.981 2.20332 16.9813 2.21441 16.9794 2.22523Z" fill="url(#paint10_linear_6784_5245)"/>
<g style="mix-blend-mode:multiply">
<path d="M2.86245 43.3969C2.85605 43.3963 2.84983 43.3944 2.84417 43.3914C2.83851 43.3884 2.83353 43.3842 2.82952 43.3792C2.82552 43.3742 2.82258 43.3684 2.82088 43.3622C2.81918 43.3561 2.81875 43.3496 2.81963 43.3433L5.95089 8.49833C5.95145 8.49214 5.95322 8.48613 5.95611 8.48063C5.959 8.47513 5.96295 8.47025 5.96773 8.46627C5.97251 8.46229 5.97803 8.45929 5.98397 8.45744C5.98992 8.45559 5.99617 8.45492 6.00238 8.45548C6.0088 8.45575 6.01509 8.45731 6.02089 8.46008C6.02668 8.46285 6.03185 8.46677 6.03609 8.47159C6.04032 8.47641 6.04353 8.48203 6.04551 8.48812C6.0475 8.49421 6.04823 8.50064 6.04765 8.50702L2.91638 43.352C2.91521 43.3651 2.90886 43.3771 2.89875 43.3856C2.88863 43.394 2.87558 43.398 2.86245 43.3969Z" fill="#C7C2A9"/>
</g>
<g style="mix-blend-mode:multiply">
<path d="M15.507 44.5336C15.5006 44.533 15.4944 44.5312 15.4887 44.5281C15.483 44.5251 15.4781 44.5209 15.4741 44.5159C15.4701 44.5109 15.4671 44.5051 15.4654 44.499C15.4637 44.4928 15.4633 44.4863 15.4642 44.48L18.5954 9.63505C18.596 9.62886 18.5978 9.62285 18.6006 9.61735C18.6035 9.61185 18.6075 9.60697 18.6123 9.60299C18.617 9.59901 18.6226 9.59601 18.6285 9.59416C18.6345 9.5923 18.6407 9.59164 18.6469 9.5922C18.6533 9.59247 18.6596 9.59403 18.6654 9.5968C18.6712 9.59957 18.6764 9.60348 18.6806 9.6083C18.6849 9.61312 18.6881 9.61875 18.69 9.62484C18.692 9.63093 18.6928 9.63736 18.6922 9.64374L15.5609 44.4887C15.5597 44.5018 15.5534 44.5139 15.5433 44.5223C15.5332 44.5307 15.5201 44.5348 15.507 44.5336Z" fill="#C7C2A9"/>
</g>
<path d="M17.894 8.22648C15.8101 7.49858 13.6381 7.05171 11.4356 6.89778C11.4406 6.84171 11.4457 6.78564 11.4507 6.72958C13.6866 6.88574 15.8916 7.33937 18.0072 8.07839C17.9733 8.12734 17.9326 8.17569 17.894 8.22648Z" fill="black"/>
<mask id="path-231-inside-1_6784_5245" fill="white">
<path d="M13.8355 7.12518C13.8264 7.22611 13.1014 7.24234 12.2149 7.16268C11.3284 7.08301 10.6111 6.93717 10.6202 6.83625C10.6293 6.73532 11.3567 6.71705 12.241 6.79651C13.1253 6.87597 13.8446 7.02426 13.8355 7.12518Z"/>
</mask>
<path d="M13.8355 7.12518C13.8264 7.22611 13.1014 7.24234 12.2149 7.16268C11.3284 7.08301 10.6111 6.93717 10.6202 6.83625C10.6293 6.73532 11.3567 6.71705 12.241 6.79651C13.1253 6.87597 13.8446 7.02426 13.8355 7.12518Z" fill="black"/>
<path d="M12.8395 7.03568C12.8674 6.72559 13.0295 6.51858 13.1419 6.41327C13.2484 6.31353 13.3503 6.26437 13.3942 6.24493C13.4451 6.22232 13.4844 6.21112 13.5011 6.20667C13.5199 6.20165 13.5311 6.19973 13.5316 6.19964C13.5316 6.19964 13.5149 6.20236 13.4762 6.20532C13.4393 6.20814 13.3912 6.21054 13.3314 6.21191C13.0863 6.21753 12.7227 6.20428 12.3044 6.16669L12.1254 8.15866C12.5936 8.20074 13.0358 8.21921 13.3772 8.21139C13.5412 8.20763 13.7184 8.1972 13.8747 8.17C13.9448 8.1578 14.0715 8.13242 14.2051 8.07314C14.2714 8.04376 14.3906 7.98397 14.5092 7.87295C14.6337 7.75635 14.8025 7.5374 14.8315 7.21469L12.8395 7.03568ZM12.3044 6.16669C11.8862 6.12911 11.524 6.07714 11.2818 6.02767C11.2227 6.01559 11.1752 6.00455 11.1388 5.9951C11.1209 5.99042 11.1071 5.98651 11.0971 5.98348C11.0869 5.98039 11.0827 5.97886 11.0835 5.97915C11.0837 5.97921 11.094 5.98293 11.1113 5.99102C11.1266 5.99816 11.1628 6.01586 11.2087 6.04677C11.2479 6.07321 11.3396 6.13921 11.427 6.25582C11.5191 6.37871 11.6443 6.61258 11.6162 6.92575L9.62421 6.74674C9.59493 7.07253 9.72468 7.31936 9.82675 7.45552C9.92412 7.58538 10.0311 7.66494 10.0908 7.70519C10.2115 7.78656 10.3315 7.83374 10.3983 7.8581C10.5472 7.91242 10.7202 7.95423 10.8816 7.9872C11.2174 8.0558 11.6571 8.11658 12.1254 8.15866L12.3044 6.16669ZM11.6162 6.92575C11.5882 7.23656 11.4255 7.44353 11.3137 7.54821C11.2076 7.64758 11.1061 7.69663 11.0626 7.71598C11.0119 7.73852 10.973 7.74971 10.9564 7.75415C10.9378 7.75916 10.9267 7.76107 10.9263 7.76114C10.9252 7.76133 10.9294 7.76058 10.9397 7.75935C10.9499 7.75815 10.9639 7.75674 10.9821 7.7553C11.0191 7.7524 11.0673 7.74991 11.1271 7.74843C11.3721 7.74238 11.7353 7.75509 12.1515 7.7925L12.3305 5.80052C11.8624 5.75846 11.4198 5.74059 11.0777 5.74904C10.9133 5.7531 10.7358 5.76391 10.5795 5.79143C10.5094 5.80378 10.383 5.82936 10.2497 5.88863C10.1837 5.91798 10.0648 5.97769 9.94664 6.08838C9.82277 6.20438 9.65327 6.42331 9.62421 6.74674L11.6162 6.92575ZM12.1515 7.7925C12.5677 7.82989 12.9293 7.8823 13.1714 7.93221C13.2305 7.94439 13.2781 7.95553 13.3145 7.96508C13.3325 7.9698 13.3463 7.97376 13.3564 7.97682C13.3666 7.97995 13.3709 7.98152 13.3702 7.98126C13.3701 7.98123 13.3599 7.97755 13.3428 7.9695C13.3276 7.9624 13.2916 7.94475 13.2461 7.91396C13.2071 7.88765 13.1159 7.82184 13.0288 7.70566C12.9372 7.58351 12.8113 7.34957 12.8395 7.03568L14.8315 7.21469C14.8608 6.88819 14.7304 6.64126 14.6289 6.5058C14.5318 6.37633 14.4252 6.29691 14.3657 6.25673C14.2454 6.17543 14.1258 6.12811 14.0589 6.10359C13.9099 6.04894 13.7369 6.00673 13.5752 5.97339C13.2388 5.90405 12.7986 5.84259 12.3305 5.80052L12.1515 7.7925Z" fill="black" mask="url(#path-231-inside-1_6784_5245)"/>
</g>
<defs>
<linearGradient id="paint0_linear_6784_5245" x1="15.2536" y1="24.611" x2="20.3158" y2="25.1455" gradientUnits="userSpaceOnUse">
<stop stop-color="#242424"/>
<stop offset="1" stop-color="white"/>
</linearGradient>
<linearGradient id="paint1_linear_6784_5245" x1="5.69262" y1="7.96148" x2="5.77847" y2="7.00609" gradientUnits="userSpaceOnUse">
<stop stop-color="#CCCCCC"/>
<stop offset="1" stop-color="white"/>
</linearGradient>
<linearGradient id="paint2_linear_6784_5245" x1="19.0395" y1="9.16151" x2="19.1254" y2="8.20611" gradientUnits="userSpaceOnUse">
<stop stop-color="#CCCCCC"/>
<stop offset="1" stop-color="white"/>
</linearGradient>
<linearGradient id="paint3_linear_6784_5245" x1="3.39543" y1="7.37798" x2="5.11222" y2="7.53225" gradientUnits="userSpaceOnUse">
<stop stop-color="#363B39"/>
<stop offset="1" stop-color="#1B1C1C"/>
</linearGradient>
<linearGradient id="paint4_linear_6784_5245" x1="21.4735" y1="9.00295" x2="19.7545" y2="8.84848" gradientUnits="userSpaceOnUse">
<stop stop-color="#363B39"/>
<stop offset="1" stop-color="#1B1C1C"/>
</linearGradient>
<linearGradient id="paint5_linear_6784_5245" x1="12.403" y1="8.16856" x2="12.5986" y2="5.99089" gradientUnits="userSpaceOnUse">
<stop stop-color="#363B39"/>
<stop offset="1" stop-color="#1B1C1C"/>
</linearGradient>
<linearGradient id="paint6_linear_6784_5245" x1="2.20747" y1="44.2047" x2="6.1428" y2="44.5583" gradientUnits="userSpaceOnUse">
<stop stop-color="#363B39"/>
<stop offset="1" stop-color="#1B1C1C"/>
</linearGradient>
<linearGradient id="paint7_linear_6784_5245" x1="16.0187" y1="45.4456" x2="12.0834" y2="45.092" gradientUnits="userSpaceOnUse">
<stop stop-color="#363B39"/>
<stop offset="1" stop-color="#1B1C1C"/>
</linearGradient>
<linearGradient id="paint8_linear_6784_5245" x1="9.09634" y1="44.9479" x2="9.0647" y2="45.3" gradientUnits="userSpaceOnUse">
<stop stop-color="#363B39"/>
<stop offset="1" stop-color="#1B1C1C"/>
</linearGradient>
<linearGradient id="paint9_linear_6784_5245" x1="11.1353" y1="9.76655" x2="9.87539" y2="7.13274" gradientUnits="userSpaceOnUse">
<stop stop-color="#3B3B3B"/>
<stop offset="1"/>
</linearGradient>
<linearGradient id="paint10_linear_6784_5245" x1="12.9633" y1="1.91181" x2="12.9855" y2="1.66512" gradientUnits="userSpaceOnUse">
<stop stop-color="#363B39"/>
<stop offset="1" stop-color="#1B1C1C"/>
</linearGradient>
<clipPath id="clip0_6784_5245">
<rect width="18.3101" height="44.4675" fill="white" transform="translate(3.97656) rotate(5.13497)"/>
</clipPath>
</defs>
</svg>
