<svg width="24" height="24" viewBox="0 0 24 24" fill="none" xmlns="http://www.w3.org/2000/svg">
<path d="M11.2105 12.7895V16.2105C11.2105 16.4342 11.2862 16.6217 11.4376 16.7729C11.589 16.9243 11.7766 17 12.0003 17C12.2241 17 12.4116 16.9243 12.5626 16.7729C12.7139 16.6217 12.7895 16.4342 12.7895 16.2105V12.7895H16.2105C16.4342 12.7895 16.6217 12.7138 16.7729 12.5624C16.9243 12.411 17 12.2234 17 11.9997C17 11.7759 16.9243 11.5884 16.7729 11.4374C16.6217 11.2861 16.4342 11.2105 16.2105 11.2105H12.7895V7.78947C12.7895 7.56579 12.7138 7.37833 12.5624 7.22711C12.411 7.0757 12.2234 7 11.9997 7C11.7759 7 11.5884 7.0757 11.4374 7.22711C11.2861 7.37833 11.2105 7.56579 11.2105 7.78947V11.2105H7.78947C7.56579 11.2105 7.37833 11.2862 7.22711 11.4376C7.0757 11.589 7 11.7766 7 12.0003C7 12.2241 7.0757 12.4116 7.22711 12.5626C7.37833 12.7139 7.56579 12.7895 7.78947 12.7895H11.2105ZM12.0018 22C10.6187 22 9.3186 21.7375 8.10158 21.2126C6.88456 20.6877 5.82596 19.9754 4.92579 19.0755C4.02561 18.1757 3.31289 17.1175 2.78763 15.9011C2.26254 14.6846 2 13.3848 2 12.0018C2 10.6187 2.26246 9.3186 2.78737 8.10158C3.31228 6.88456 4.02465 5.82596 4.92447 4.92579C5.8243 4.02561 6.88246 3.31289 8.09895 2.78763C9.31544 2.26254 10.6152 2 11.9982 2C13.3813 2 14.6814 2.26246 15.8984 2.78737C17.1154 3.31228 18.174 4.02465 19.0742 4.92447C19.9744 5.8243 20.6871 6.88246 21.2124 8.09895C21.7375 9.31544 22 10.6152 22 11.9982C22 13.3813 21.7375 14.6814 21.2126 15.8984C20.6877 17.1154 19.9754 18.174 19.0755 19.0742C18.1757 19.9744 17.1175 20.6871 15.9011 21.2124C14.6846 21.7375 13.3848 22 12.0018 22ZM12 20.4211C14.3509 20.4211 16.3421 19.6053 17.9737 17.9737C19.6053 16.3421 20.4211 14.3509 20.4211 12C20.4211 9.64912 19.6053 7.65789 17.9737 6.02632C16.3421 4.39474 14.3509 3.57895 12 3.57895C9.64912 3.57895 7.65789 4.39474 6.02632 6.02632C4.39474 7.65789 3.57895 9.64912 3.57895 12C3.57895 14.3509 4.39474 16.3421 6.02632 17.9737C7.65789 19.6053 9.64912 20.4211 12 20.4211Z" fill="#4F0CBC"/>
</svg>
