<svg width="24" height="24" viewBox="0 0 24 24" fill="none" xmlns="http://www.w3.org/2000/svg">
<path d="M11.0936 17.6802C10.8793 17.885 10.5886 18 10.2856 18C9.98252 18 9.69187 17.885 9.47755 17.6802L4.33462 12.7656C4.12036 12.5607 4 12.283 4 11.9934C4 11.7038 4.12036 11.4261 4.33462 11.2213L9.47755 6.30658C9.6931 6.10763 9.9818 5.99755 10.2815 6.00004C10.5811 6.00253 10.8678 6.11739 11.0797 6.31988C11.2916 6.52238 11.4117 6.7963 11.4144 7.08266C11.417 7.36902 11.3018 7.6449 11.0936 7.85088L7.99982 10.9013L18.8571 10.9013C19.1602 10.9013 19.4509 11.0163 19.6653 11.2211C19.8796 11.426 20 11.7038 20 11.9934C20 12.2831 19.8796 12.5609 19.6653 12.7657C19.4509 12.9705 19.1602 13.0856 18.8571 13.0856L7.99982 13.0856L11.0936 16.1359C11.3078 16.3407 11.4282 16.6185 11.4282 16.9081C11.4282 17.1977 11.3078 17.4754 11.0936 17.6802Z" fill="#4F0CBC"/>
</svg>
