<svg width="15" height="15" viewBox="0 0 15 15" fill="none" xmlns="http://www.w3.org/2000/svg">
<g clip-path="url(#clip0_1058_4846)">
<rect width="15" height="15" fill="#F3F6FC"/>
<path d="M2.5 10C2.5 10.55 2.74375 11.0437 3.125 11.3875V12.1875C3.125 12.7063 3.54375 13.125 4.0625 13.125C4.58125 13.125 5 12.7063 5 12.1875V11.875H10V12.1875C10 12.7 10.4187 13.125 10.9375 13.125C11.45 13.125 11.875 12.7063 11.875 12.1875V11.3875C12.2563 11.0437 12.5 10.55 12.5 10V3.75C12.5 1.5625 10.2625 1.25 7.5 1.25C4.7375 1.25 2.5 1.5625 2.5 3.75V10ZM4.6875 10.625C4.16875 10.625 3.75 10.2063 3.75 9.6875C3.75 9.16875 4.16875 8.75 4.6875 8.75C5.20625 8.75 5.625 9.16875 5.625 9.6875C5.625 10.2063 5.20625 10.625 4.6875 10.625ZM10.3125 10.625C9.79375 10.625 9.375 10.2063 9.375 9.6875C9.375 9.16875 9.79375 8.75 10.3125 8.75C10.8313 8.75 11.25 9.16875 11.25 9.6875C11.25 10.2063 10.8313 10.625 10.3125 10.625ZM11.25 6.875H3.75V3.75H11.25V6.875Z" fill="#5979FB"/>
</g>
<defs>
<clipPath id="clip0_1058_4846">
<rect width="15" height="15" fill="white"/>
</clipPath>
</defs>
</svg>
