<svg width="12" height="12" viewBox="0 0 12 12" fill="none" xmlns="http://www.w3.org/2000/svg">
<path d="M7 6.5C6.58333 6.5 6.22917 6.35417 5.9375 6.0625C5.64583 5.77083 5.5 5.41667 5.5 5C5.5 4.58333 5.64583 4.22917 5.9375 3.9375C6.22917 3.64583 6.58333 3.5 7 3.5C7.41667 3.5 7.77083 3.64583 8.0625 3.9375C8.35417 4.22917 8.5 4.58333 8.5 5C8.5 5.41667 8.35417 5.77083 8.0625 6.0625C7.77083 6.35417 7.41667 6.5 7 6.5ZM3.5 8C3.225 8 2.98958 7.90208 2.79375 7.70625C2.59792 7.51042 2.5 7.275 2.5 7V3C2.5 2.725 2.59792 2.48958 2.79375 2.29375C2.98958 2.09792 3.225 2 3.5 2H10.5C10.775 2 11.0104 2.09792 11.2063 2.29375C11.4021 2.48958 11.5 2.725 11.5 3V7C11.5 7.275 11.4021 7.51042 11.2063 7.70625C11.0104 7.90208 10.775 8 10.5 8H3.5ZM4.5 7H9.5C9.5 6.725 9.59792 6.48958 9.79375 6.29375C9.98958 6.09792 10.225 6 10.5 6V4C10.225 4 9.98958 3.90208 9.79375 3.70625C9.59792 3.51042 9.5 3.275 9.5 3H4.5C4.5 3.275 4.40208 3.51042 4.20625 3.70625C4.01042 3.90208 3.775 4 3.5 4V6C3.775 6 4.01042 6.09792 4.20625 6.29375C4.40208 6.48958 4.5 6.725 4.5 7ZM9.5 10H1.5C1.225 10 0.989583 9.90208 0.79375 9.70625C0.597917 9.51042 0.5 9.275 0.5 9V4C0.5 3.85833 0.547917 3.73958 0.64375 3.64375C0.739583 3.54792 0.858333 3.5 1 3.5C1.14167 3.5 1.26042 3.54792 1.35625 3.64375C1.45208 3.73958 1.5 3.85833 1.5 4V9H9.5C9.64167 9 9.76042 9.04792 9.85625 9.14375C9.95208 9.23958 10 9.35833 10 9.5C10 9.64167 9.95208 9.76042 9.85625 9.85625C9.76042 9.95208 9.64167 10 9.5 10Z" fill="#4F0CBC"/>
</svg>
