<svg width="12" height="7" viewBox="0 0 12 7" fill="none" xmlns="http://www.w3.org/2000/svg">
<path d="M11.8236 0.166306C11.9461 0.287257 12.0048 0.430885 11.9997 0.597192C11.9946 0.763499 11.9359 0.902088 11.8236 1.01296L8.592 4.24838C8.35716 4.4802 8.06616 4.59611 7.71901 4.59611C7.37186 4.59611 7.08087 4.4802 6.84603 4.24838L5.26853 2.67603L2.08291 5.7905H3.0631C3.23668 5.7905 3.38217 5.84845 3.49959 5.96436C3.61701 6.08027 3.67572 6.2239 3.67572 6.39525C3.67572 6.56659 3.61701 6.71022 3.49959 6.82613C3.38217 6.94204 3.23668 7 3.0631 7L0.612619 7C0.439044 7 0.293547 6.94204 0.176128 6.82613C0.0587091 6.71022 0 6.56659 0 6.39525V3.97624C0 3.8049 0.0587091 3.66127 0.176128 3.54536C0.293547 3.42945 0.439044 3.37149 0.612619 3.37149C0.786196 3.37149 0.931693 3.42945 1.04911 3.54536C1.16653 3.66127 1.22524 3.8049 1.22524 3.97624V4.94384L4.39555 1.81425C4.63039 1.58243 4.92138 1.46652 5.26853 1.46652C5.61568 1.46652 5.90668 1.58243 6.14152 1.81425L7.71901 3.37149L10.9659 0.166306C11.0782 0.0554357 11.2212 0 11.3947 0C11.5683 0 11.7113 0.0554357 11.8236 0.166306Z" fill="#DE1C22"/>
</svg>
