<svg width="20" height="20" viewBox="0 0 20 20" fill="none" xmlns="http://www.w3.org/2000/svg">
<g clip-path="url(#clip0_1062_5145)">
<path d="M17.5 15.8334V10.2226C17.5 9.77043 17.408 9.32303 17.2297 8.90757C17.0513 8.49211 16.7903 8.11728 16.4625 7.80588L11.1483 2.75838C10.8386 2.46412 10.4277 2.30005 10.0004 2.30005C9.57317 2.30005 9.16225 2.46412 8.8525 2.75838L3.5375 7.80588C3.20971 8.11728 2.9487 8.49211 2.77034 8.90757C2.59198 9.32303 2.5 9.77043 2.5 10.2226V15.8334C2.5 16.2754 2.67559 16.6993 2.98816 17.0119C3.30072 17.3245 3.72464 17.5001 4.16667 17.5001H15.8333C16.2754 17.5001 16.6993 17.3245 17.0118 17.0119C17.3244 16.6993 17.5 16.2754 17.5 15.8334Z" fill="#5D7CFB" stroke="#5D7CFB" stroke-width="2" stroke-linecap="round" stroke-linejoin="round"/>
</g>
<defs>
<clipPath id="clip0_1062_5145">
<rect width="20" height="20" fill="white"/>
</clipPath>
</defs>
</svg>
