<svg width="16" height="18" viewBox="0 0 16 18" fill="none" xmlns="http://www.w3.org/2000/svg">
<path d="M15.0659 11.2502C15.6817 10.1441 16.0025 8.9096 16 7.65629C16 3.42776 12.4183 0 8 0C3.58165 0 1.23349e-05 3.42776 1.23349e-05 7.65629C-0.00330798 9.46241 0.663796 11.2109 1.88236 12.5901L1.89177 12.6013L1.90024 12.6104H1.88236L6.62965 17.4338C6.80563 17.6126 7.01795 17.755 7.25357 17.8524C7.48919 17.9498 7.74312 18 7.99976 18C8.25641 18 8.51034 17.9498 8.74596 17.8524C8.98157 17.755 9.1939 17.6126 9.36988 17.4338L14.1176 12.6104H14.0998L14.1073 12.6018L14.1082 12.6009C14.1421 12.5622 14.1758 12.5231 14.2094 12.4838C14.5359 12.0999 14.8227 11.6871 15.0659 11.2502ZM8.00235 10.5832C7.25351 10.5832 6.53533 10.2985 6.00582 9.79178C5.47631 9.28501 5.17883 8.59769 5.17883 7.88102C5.17883 7.16435 5.47631 6.47703 6.00582 5.97026C6.53533 5.4635 7.25351 5.1788 8.00235 5.1788C8.7512 5.1788 9.46937 5.4635 9.99889 5.97026C10.5284 6.47703 10.8259 7.16435 10.8259 7.88102C10.8259 8.59769 10.5284 9.28501 9.99889 9.79178C9.46937 10.2985 8.7512 10.5832 8.00235 10.5832Z" fill="#CACCD3"/>
</svg>
