<svg width="35" height="34" viewBox="0 0 35 34" fill="none" xmlns="http://www.w3.org/2000/svg">
<path fill-rule="evenodd" clip-rule="evenodd" d="M14.6812 12.713L9.45459 12.0026C7.9454 11.797 7.52878 9.81054 8.82914 9.01692L21.7956 1.10346C22.9635 0.389558 24.4296 1.38089 24.2031 2.73057L21.6907 17.7118C21.4385 19.2137 19.44 19.5688 18.6878 18.2443L16.0815 13.6592C15.7877 13.1432 15.2701 12.7933 14.6821 12.7125L14.6812 12.713Z" fill="url(#paint0_linear_3665_2418)"/>
<path fill-rule="evenodd" clip-rule="evenodd" d="M19.4854 21.0745L24.7509 21.7024C26.253 21.8818 26.6991 23.8477 25.4202 24.6575L13.9084 31.6665C12.8044 32.3388 11.4001 31.4883 11.4837 30.1992L12.392 16.2266C12.3951 16.1839 12.3993 16.1405 12.4073 16.0973C12.6793 14.6548 14.6128 14.2999 15.3708 15.5837L18.0668 20.1485C18.37 20.6613 18.8943 21.0032 19.4854 21.0745Z" fill="url(#paint1_linear_3665_2418)"/>
<path fill-rule="evenodd" clip-rule="evenodd" d="M5.59391 13.4995C4.98152 13.4056 4.47703 13.9746 4.64352 14.5715L8.0651 26.7813C8.3433 27.6816 9.66214 27.5297 9.72841 26.5897L10.5489 15.05C10.5829 14.5743 10.2188 14.1635 9.74264 14.1389L5.59391 13.4995Z" fill="#33E27D"/>
<path fill-rule="evenodd" clip-rule="evenodd" d="M28.6086 20.242C29.1937 20.3266 29.6854 19.8051 29.5654 19.2264L27.0737 7.17037C26.8786 6.24787 25.5523 6.27948 25.3997 7.20945L23.5289 18.6267C23.4519 19.0978 23.7765 19.5392 24.2489 19.6078L28.6082 20.2435L28.6086 20.242Z" fill="#33E27D"/>
<defs>
<linearGradient id="paint0_linear_3665_2418" x1="15.2996" y1="5.06161" x2="22.9602" y2="17.5935" gradientUnits="userSpaceOnUse">
<stop stop-color="#DB2855"/>
<stop offset="1" stop-color="#D62250"/>
</linearGradient>
<linearGradient id="paint1_linear_3665_2418" x1="12.0411" y1="15.7022" x2="19.6657" y2="28.1752" gradientUnits="userSpaceOnUse">
<stop stop-color="#E33663"/>
<stop offset="1" stop-color="#D62250"/>
</linearGradient>
</defs>
</svg>
