<svg width="24" height="24" viewBox="0 0 24 24" fill="none" xmlns="http://www.w3.org/2000/svg">
<rect width="24" height="24" fill="white"/>
<path d="M2.3999 21.5984H11.9999V2.39844H2.3999V21.5984ZM8.3999 4.79844H10.7999V7.19844H8.3999V4.79844ZM8.3999 9.59844H10.7999V11.9984H8.3999V9.59844ZM8.3999 14.3984H10.7999V16.7984H8.3999V14.3984ZM3.5999 4.79844H5.9999V7.19844H3.5999V4.79844ZM3.5999 9.59844H5.9999V11.9984H3.5999V9.59844ZM3.5999 14.3984H5.9999V16.7984H3.5999V14.3984ZM13.1999 8.39844H21.5999V9.59844H13.1999V8.39844ZM13.1999 21.5984H15.5999V16.7984H19.1999V21.5984H21.5999V10.7984H13.1999V21.5984Z" fill="#001C44"/>
</svg>
