<svg width="24" height="24" viewBox="0 0 24 24" fill="none" xmlns="http://www.w3.org/2000/svg">
<path d="M5.12552 4C4.29658 4 3.50159 4.35119 2.91544 4.97631C2.3293 5.60143 2 6.44928 2 7.33333V8H22V7.33333C22 6.44928 21.6707 5.60143 21.0846 4.97631C20.4984 4.35119 19.7034 4 18.8745 4H5.12552ZM2 16.6667V9.33333H22V16.6667C22 17.5507 21.6707 18.3986 21.0846 19.0237C20.4984 19.6488 19.7034 20 18.8745 20H5.12635C4.29741 20 3.50243 19.6488 2.91628 19.0237C2.33013 18.3986 2.00083 17.5507 2.00083 16.6667M15.5406 14.2222C15.3748 14.2222 15.2158 14.2925 15.0986 14.4175C14.9813 14.5425 14.9155 14.7121 14.9155 14.8889C14.9155 15.0657 14.9813 15.2353 15.0986 15.3603C15.2158 15.4853 15.3748 15.5556 15.5406 15.5556H18.4577C18.6235 15.5556 18.7825 15.4853 18.8998 15.3603C19.017 15.2353 19.0828 15.0657 19.0828 14.8889C19.0828 14.7121 19.017 14.5425 18.8998 14.4175C18.7825 14.2925 18.6235 14.2222 18.4577 14.2222H15.5406Z" fill="#001C44"/>
</svg>
