<svg width="24" height="24" viewBox="0 0 24 24" fill="none" xmlns="http://www.w3.org/2000/svg">
<path d="M3.5 24.0023C3.091 24.0023 2.73875 23.8561 2.44325 23.5638C2.14775 23.2714 2 22.9176 2 22.5023C2 22.0933 2.14775 21.741 2.44325 21.4455C2.73875 21.15 3.091 21.0023 3.5 21.0023H20.5C20.909 21.0023 21.2613 21.1484 21.5568 21.4408C21.8523 21.7331 22 22.0869 22 22.5023C22 22.9113 21.8523 23.2635 21.5568 23.559C21.2613 23.8545 20.909 24.0023 20.5 24.0023H3.5ZM6 16.4158H7.2365L15.5365 8.131L14.9078 7.49275L14.2848 6.87925L6 15.1793V16.4158ZM4.5 17.0118V14.9178C4.5 14.7973 4.52017 14.6825 4.5605 14.5735C4.601 14.4645 4.668 14.3632 4.7615 14.2695L15.7098 3.3465C15.8546 3.20167 16.019 3.09208 16.203 3.01775C16.3868 2.94342 16.5768 2.90625 16.773 2.90625C16.9757 2.90625 17.1683 2.94342 17.351 3.01775C17.5337 3.09208 17.7026 3.20683 17.8577 3.362L19.0595 4.57925C19.2147 4.72408 19.3268 4.88942 19.396 5.07525C19.4653 5.26125 19.5 5.4555 19.5 5.658C19.5 5.844 19.4653 6.02892 19.396 6.21275C19.3268 6.39675 19.2147 6.56633 19.0595 6.7215L8.1365 17.6445C8.04283 17.7382 7.94158 17.8068 7.83275 17.8503C7.72375 17.8939 7.609 17.9158 7.4885 17.9158H5.404C5.14617 17.9158 4.93108 17.8295 4.75875 17.657C4.58625 17.4847 4.5 17.2696 4.5 17.0118ZM15.5365 8.131L14.9078 7.49275L14.2848 6.87925L15.5365 8.131Z" fill="#D9D9D9"/>
</svg>
