<svg width="24" height="24" viewBox="0 0 24 24" fill="none" xmlns="http://www.w3.org/2000/svg">
<rect width="24" height="24" fill="white"/>
<path fill-rule="evenodd" clip-rule="evenodd" d="M7.73324 6.6651C7.73324 5.53351 8.18276 4.44827 8.98291 3.64812C9.78307 2.84796 10.8683 2.39844 11.9999 2.39844C13.1315 2.39844 14.2167 2.84796 15.0169 3.64812C15.817 4.44827 16.2666 5.53351 16.2666 6.6651C16.2666 7.79669 15.817 8.88194 15.0169 9.68209C14.2167 10.4822 13.1315 10.9318 11.9999 10.9318C10.8683 10.9318 9.78307 10.4822 8.98291 9.68209C8.18276 8.88194 7.73324 7.79669 7.73324 6.6651ZM7.73324 13.0651C6.31875 13.0651 4.96219 13.627 3.962 14.6272C2.96181 15.6274 2.3999 16.984 2.3999 18.3984C2.3999 19.2471 2.73704 20.0611 3.33716 20.6612C3.93728 21.2613 4.75121 21.5984 5.5999 21.5984H18.3999C19.2486 21.5984 20.0625 21.2613 20.6626 20.6612C21.2628 20.0611 21.5999 19.2471 21.5999 18.3984C21.5999 16.984 21.038 15.6274 20.0378 14.6272C19.0376 13.627 17.6811 13.0651 16.2666 13.0651H7.73324Z" fill="#001C44"/>
</svg>
