<svg width="24" height="24" viewBox="0 0 24 24" fill="none" xmlns="http://www.w3.org/2000/svg">
<path d="M4.19 5.00974C3.47 5.30315 3 5.96332 3 6.68768V10.9971C3 16.086 6.84 20.8447 12 22C17.16 20.8447 21 16.086 21 10.9971V6.68768C21 5.96332 20.53 5.30315 19.81 5.00974L12.81 2.15817C12.29 1.94728 11.7 1.94728 11.19 2.15817L4.19 5.00974ZM12 7.32951C12.55 7.32951 13 7.74212 13 8.24642C13 8.75072 12.55 9.16332 12 9.16332C11.45 9.16332 11 8.75072 11 8.24642C11 7.74212 11.45 7.32951 12 7.32951ZM12 10.9971C12.55 10.9971 13 11.4097 13 11.914V15.5817C13 16.086 12.55 16.4986 12 16.4986C11.45 16.4986 11 16.086 11 15.5817V11.914C11 11.4097 11.45 10.9971 12 10.9971Z" fill="#001C44"/>
</svg>
