<svg width="24" height="24" viewBox="0 0 24 24" fill="none" xmlns="http://www.w3.org/2000/svg">
<path fill-rule="evenodd" clip-rule="evenodd" d="M12 4.00049C10.6008 4.00023 9.22593 4.36698 8.01273 5.06412C6.79952 5.76126 5.79038 6.76441 5.08603 7.97344C4.38168 9.18248 4.00675 10.5551 3.99868 11.9543C3.9906 13.3535 4.34966 14.7304 5.04001 15.9475C5.50662 15.3411 6.10644 14.8501 6.7931 14.5125C7.47975 14.1749 8.23485 13.9997 9.00001 14.0005H15C15.7652 13.9997 16.5203 14.1749 17.2069 14.5125C17.8936 14.8501 18.4934 15.3411 18.96 15.9475C19.6504 14.7304 20.0094 13.3535 20.0013 11.9543C19.9933 10.5551 19.6183 9.18248 18.914 7.97344C18.2096 6.76441 17.2005 5.76126 15.9873 5.06412C14.7741 4.36698 13.3993 4.00023 12 4.00049ZM19.943 18.0765C21.28 16.3335 22.0032 14.1973 22 12.0005C22 6.47749 17.523 2.00049 12 2.00049C6.47701 2.00049 2.00001 6.47749 2.00001 12.0005C1.99671 14.1973 2.71992 16.3335 4.05701 18.0765L4.05201 18.0945L4.40701 18.5075C5.3449 19.604 6.5094 20.4841 7.82024 21.0871C9.13109 21.6902 10.5571 22.0018 12 22.0005C14.0273 22.0042 16.0074 21.3884 17.675 20.2355C18.3859 19.7443 19.0306 19.1635 19.593 18.5075L19.948 18.0945L19.943 18.0765ZM12 6.00049C11.2044 6.00049 10.4413 6.31656 9.87869 6.87917C9.31608 7.44178 9.00001 8.20484 9.00001 9.00049C9.00001 9.79614 9.31608 10.5592 9.87869 11.1218C10.4413 11.6844 11.2044 12.0005 12 12.0005C12.7957 12.0005 13.5587 11.6844 14.1213 11.1218C14.6839 10.5592 15 9.79614 15 9.00049C15 8.20484 14.6839 7.44178 14.1213 6.87917C13.5587 6.31656 12.7957 6.00049 12 6.00049Z" fill="#CACCD3"/>
</svg>
