<svg width="24" height="24" viewBox="0 0 24 24" fill="none" xmlns="http://www.w3.org/2000/svg">
<rect width="24" height="24" fill="white"/>
<path fill-rule="evenodd" clip-rule="evenodd" d="M2.3999 6.76051C2.3999 6.23972 2.60219 5.74026 2.96226 5.37201C3.32233 5.00376 3.81069 4.79688 4.3199 4.79688H19.6799C20.1891 4.79688 20.6775 5.00376 21.0375 5.37201C21.3976 5.74026 21.5999 6.23972 21.5999 6.76051V17.2332C21.5999 17.754 21.3976 18.2535 21.0375 18.6217C20.6775 18.99 20.1891 19.1969 19.6799 19.1969H4.3199C3.81069 19.1969 3.32233 18.99 2.96226 18.6217C2.60219 18.2535 2.3999 17.754 2.3999 17.2332V6.76051ZM6.2399 10.0332C6.2399 9.33885 6.50962 8.67291 6.98971 8.1819C7.4698 7.6909 8.12095 7.41506 8.7999 7.41506C9.47886 7.41506 10.13 7.6909 10.6101 8.1819C11.0902 8.67291 11.3599 9.33885 11.3599 10.0332C11.3599 10.7276 11.0902 11.3936 10.6101 11.8846C10.13 12.3756 9.47886 12.6514 8.7999 12.6514C8.12095 12.6514 7.4698 12.3756 6.98971 11.8846C6.50962 11.3936 6.2399 10.7276 6.2399 10.0332ZM17.7599 10.0332H13.9199V8.72415H17.7599V10.0332ZM17.7599 13.9605H13.9199V12.6514H17.7599V13.9605ZM8.7999 13.9605C8.10412 13.9605 7.42208 14.1587 6.83021 14.5328C6.23834 14.9069 5.76003 15.4422 5.44886 16.0786L5.02646 16.94C4.97752 17.0399 4.95439 17.1509 4.95929 17.2625C4.96418 17.3742 4.99692 17.4826 5.05441 17.5777C5.11189 17.6727 5.1922 17.751 5.28769 17.8053C5.38317 17.8596 5.49066 17.888 5.5999 17.8878H11.9999C12.109 17.8878 12.2164 17.8592 12.3117 17.8049C12.407 17.7505 12.4871 17.6721 12.5445 17.5771C12.6018 17.4821 12.6344 17.3737 12.6393 17.2622C12.6441 17.1507 12.621 17.0398 12.5721 16.94L12.1509 16.0786C11.8398 15.4422 11.3615 14.9069 10.7696 14.5328C10.1777 14.1587 9.49569 13.9605 8.7999 13.9605Z" fill="#001C44"/>
</svg>
