<svg width="24" height="24" viewBox="0 0 24 24" fill="none" xmlns="http://www.w3.org/2000/svg">
<path fill-rule="evenodd" clip-rule="evenodd" d="M12 19C8.1339 19 5 15.8661 5 12C5 8.1339 8.1339 5 12 5C15.8661 5 19 8.1339 19 12C19 15.8661 15.8661 19 12 19ZM12 17.6C13.4852 17.6 14.9096 17.01 15.9598 15.9598C17.01 14.9096 17.6 13.4852 17.6 12C17.6 10.5148 17.01 9.09041 15.9598 8.0402C14.9096 6.99 13.4852 6.4 12 6.4C10.5148 6.4 9.09041 6.99 8.0402 8.0402C6.99 9.09041 6.4 10.5148 6.4 12C6.4 13.4852 6.99 14.9096 8.0402 15.9598C9.09041 17.01 10.5148 17.6 12 17.6ZM11.3 14.8H12.7V16.2H11.3V14.8ZM11.3 13.4056C11.3 13.4056 12.7 13.4 12.7 13.4056C12.7 12.7042 14.8 12 14.8 10.6C14.8 9.053 13.5589 7.8 12.0063 7.8C11.6381 7.79917 11.2733 7.87098 10.9329 8.01133C10.5924 8.15167 10.283 8.35778 10.0223 8.61787C9.76166 8.87796 9.55485 9.18691 9.41374 9.52703C9.27263 9.86715 9.2 10.2318 9.2 10.6H10.6C10.6 9.83 11.23 9.2 12 9.2C12.77 9.2 13.4 9.83 13.4 10.6C13.4 11.23 11.3 12.2569 11.3 13.4056Z" fill="#4F0CBC"/>
</svg>
