<svg width="20" height="20" viewBox="0 0 20 20" fill="none" xmlns="http://www.w3.org/2000/svg">
<path d="M4.24068 12.3776L3.72483 13.8657C3.66503 14.0216 3.56036 14.1527 3.41084 14.259C3.26132 14.3653 3.09685 14.4184 2.91743 14.4184C2.61839 14.4184 2.37542 14.3015 2.18852 14.0676C2.00162 13.8338 1.96798 13.5752 2.0876 13.2917L4.77894 6.46773C4.8537 6.29766 4.96584 6.16302 5.11536 6.06382C5.26488 5.96461 5.43683 5.91501 5.63121 5.91501H6.30404C6.49842 5.91501 6.67036 5.96461 6.81988 6.06382C6.9694 6.16302 7.08154 6.29766 7.1563 6.46773L9.87008 13.3342C9.97474 13.6035 9.9411 13.8515 9.76915 14.0783C9.59721 14.305 9.36171 14.4184 9.06267 14.4184C8.88325 14.4184 8.71878 14.3653 8.56926 14.259C8.41974 14.1527 8.31508 14.0216 8.25527 13.8657L7.69457 12.3776H4.24068ZM4.77894 10.932H7.11145L6.03491 7.74324H5.90034L4.77894 10.932ZM14.1538 12.8878H17.8768C18.1011 12.8878 18.2918 12.9622 18.4488 13.111C18.6057 13.2598 18.6842 13.4405 18.6842 13.6531C18.6842 13.8657 18.6057 14.0464 18.4488 14.1952C18.2918 14.344 18.1011 14.4184 17.8768 14.4184H12.6736C12.524 14.4184 12.397 14.3688 12.2923 14.2696C12.1876 14.1704 12.1353 14.0499 12.1353 13.9082V13.1004C12.1353 13.0012 12.1502 12.9055 12.1802 12.8134C12.2101 12.7213 12.2624 12.6398 12.3371 12.5689L16.6657 7.44562H13.1221C12.8978 7.44562 12.7072 7.37121 12.5502 7.2224C12.3932 7.0736 12.3147 6.8929 12.3147 6.68031C12.3147 6.46773 12.3932 6.28703 12.5502 6.13822C12.7072 5.98941 12.8978 5.91501 13.1221 5.91501H18.1011C18.2506 5.91501 18.3777 5.96461 18.4824 6.06382C18.5871 6.16302 18.6394 6.28349 18.6394 6.42521V7.23303C18.6394 7.33224 18.6244 7.4279 18.5945 7.52002C18.5646 7.61214 18.5123 7.69363 18.4375 7.7645L14.1538 12.8878ZM8.30013 3.85293L10.2962 1.96093C10.3859 1.87589 10.4906 1.83337 10.6102 1.83337C10.7298 1.83337 10.8345 1.87589 10.9242 1.96093L12.9203 3.85293C12.995 3.92379 13.0137 4.00174 12.9763 4.08678C12.939 4.17181 12.8679 4.21433 12.7633 4.21433H8.45712C8.35246 4.21433 8.28144 4.17181 8.24406 4.08678C8.20668 4.00174 8.22537 3.92379 8.30013 3.85293ZM10.2962 18.3725L8.30013 16.4805C8.22537 16.4096 8.20668 16.3317 8.24406 16.2466C8.28144 16.1616 8.35246 16.1191 8.45712 16.1191H12.7633C12.8679 16.1191 12.939 16.1616 12.9763 16.2466C13.0137 16.3317 12.995 16.4096 12.9203 16.4805L10.9242 18.3725C10.8345 18.4575 10.7298 18.5 10.6102 18.5C10.4906 18.5 10.3859 18.4575 10.2962 18.3725Z" fill="#6B778C"/>
</svg>
