<svg width="13" height="10" viewBox="0 0 13 10" fill="none" xmlns="http://www.w3.org/2000/svg">
<path d="M9.29116 2.45455L9.29116 3.18182M9.29116 4.63636L9.29116 5.36364M9.29116 6.81818L9.29116 7.54546M4.20025 2.45455L4.20025 3.18182M4.20025 4.63636L4.20025 5.36364M4.20025 6.81818L4.20025 7.54546M12.345 3.54545L12.3345 3.54545C11.9389 3.54545 11.5594 3.6987 11.2796 3.97148C10.9998 4.24426 10.8427 4.61423 10.8427 5C10.8427 5.38577 10.9998 5.75574 11.2796 6.02852C11.5594 6.3013 11.9389 6.45455 12.3345 6.45455L12.3457 6.45382L12.3457 8.27273C12.3457 8.46561 12.2671 8.6506 12.1272 8.78699C11.9873 8.92338 11.7976 9 11.5998 9L1.89162 9C1.69379 9 1.50407 8.92338 1.36418 8.78699C1.22429 8.6506 1.1457 8.46561 1.1457 8.27273L1.1457 6.45455C1.54136 6.45455 1.92082 6.3013 2.20059 6.02852C2.48037 5.75574 2.63754 5.38577 2.63754 5C2.63754 4.61423 2.48037 4.24426 2.20059 3.97148C1.92082 3.6987 1.54136 3.54545 1.1457 3.54545L1.1457 1.72727C1.1457 1.53439 1.22429 1.3494 1.36418 1.21301C1.50407 1.07662 1.69379 1 1.89162 1L11.5998 1C11.7976 1 11.9873 1.07662 12.1272 1.21301C12.2671 1.3494 12.3457 1.53439 12.3457 1.72727L12.345 3.54545Z" stroke="#4F0CBC" stroke-linecap="round" stroke-linejoin="round"/>
</svg>
