<svg width="12" height="8" viewBox="0 0 12 8" fill="none" xmlns="http://www.w3.org/2000/svg">
<path d="M0.176435 7.80994C0.0539106 7.67171 -0.00479886 7.50756 0.00030631 7.31749C0.00541148 7.12743 0.0641209 6.96904 0.176435 6.84233L3.408 3.14471C3.64284 2.87977 3.93384 2.7473 4.28099 2.7473C4.62814 2.7473 4.91913 2.87977 5.15397 3.14471L6.73147 4.94168L9.91709 1.38229H8.9369C8.76332 1.38229 8.61783 1.31605 8.50041 1.18359C8.38299 1.05112 8.32428 0.886969 8.32428 0.691145C8.32428 0.49532 8.38299 0.331174 8.50041 0.198704C8.61783 0.0662347 8.76332 0 8.9369 0H11.3874C11.561 0 11.7065 0.0662347 11.8239 0.198704C11.9413 0.331174 12 0.49532 12 0.691145V3.45572C12 3.65155 11.9413 3.81569 11.8239 3.94816C11.7065 4.08063 11.561 4.14687 11.3874 4.14687C11.2138 4.14687 11.0683 4.08063 10.9509 3.94816C10.8335 3.81569 10.7748 3.65155 10.7748 3.45572V2.34989L7.60445 5.92657C7.36961 6.1915 7.07862 6.32397 6.73147 6.32397C6.38432 6.32397 6.09332 6.1915 5.85848 5.92657L4.28099 4.14687L1.0341 7.80994C0.921789 7.93665 0.778844 8 0.605269 8C0.431693 8 0.288748 7.93665 0.176435 7.80994Z" fill="#13A579"/>
</svg>
